<?xml version="1.0"?>
<svg width="740" height="518" xmlns="http://www.w3.org/2000/svg" xmlns:svg="http://www.w3.org/2000/svg">
 <defs>
  <filter filterUnits="userSpaceOnUse" height="120%" id="fx0" primitiveUnits="userSpaceOnUse" width="120%" x="-10%" y="-10%">
   <feGaussianBlur stdDeviation="1.33333 1.33333"/>
  </filter>
  <filter filterUnits="userSpaceOnUse" height="120%" id="fx1" primitiveUnits="userSpaceOnUse" width="120%" x="-10%" y="-10%">
   <feGaussianBlur stdDeviation="1.33333 1.33333"/>
  </filter>
  <filter filterUnits="userSpaceOnUse" height="120%" id="fx3" primitiveUnits="userSpaceOnUse" width="120%" x="-10%" y="-10%">
   <feGaussianBlur stdDeviation="1.33333 1.33333"/>
  </filter>
  <filter filterUnits="userSpaceOnUse" height="120%" id="fx4" primitiveUnits="userSpaceOnUse" width="120%" x="-10%" y="-10%">
   <feGaussianBlur stdDeviation="1.33333 1.33333"/>
  </filter>
  <filter filterUnits="userSpaceOnUse" height="120%" id="fx5" primitiveUnits="userSpaceOnUse" width="120%" x="-10%" y="-10%">
   <feGaussianBlur stdDeviation="1.33333 1.33333"/>
  </filter>
  <filter filterUnits="userSpaceOnUse" height="120%" id="fx6" primitiveUnits="userSpaceOnUse" width="120%" x="-10%" y="-10%">
   <feGaussianBlur stdDeviation="1.33333 1.33333"/>
  </filter>
  <filter filterUnits="userSpaceOnUse" height="120%" id="fx7" primitiveUnits="userSpaceOnUse" width="120%" x="-10%" y="-10%">
   <feGaussianBlur stdDeviation="1.33333 1.33333"/>
  </filter>
  <filter filterUnits="userSpaceOnUse" height="120%" id="fx8" primitiveUnits="userSpaceOnUse" width="120%" x="-10%" y="-10%">
   <feGaussianBlur stdDeviation="1.33333 1.33333"/>
  </filter>
  <filter filterUnits="userSpaceOnUse" height="120%" id="fx9" primitiveUnits="userSpaceOnUse" width="120%" x="-10%" y="-10%">
   <feGaussianBlur stdDeviation="1.33333 1.33333"/>
  </filter>
  <filter filterUnits="userSpaceOnUse" height="120%" id="fx10" primitiveUnits="userSpaceOnUse" width="120%" x="-10%" y="-10%">
   <feGaussianBlur stdDeviation="1.33333 1.33333"/>
  </filter>
  <filter filterUnits="userSpaceOnUse" height="120%" id="fx11" primitiveUnits="userSpaceOnUse" width="120%" x="-10%" y="-10%">
   <feGaussianBlur stdDeviation="1.33333 1.33333"/>
  </filter>
  <filter filterUnits="userSpaceOnUse" height="120%" id="fx12" primitiveUnits="userSpaceOnUse" width="120%" x="-10%" y="-10%">
   <feGaussianBlur stdDeviation="1.33333 1.33333"/>
  </filter>
  <filter filterUnits="userSpaceOnUse" height="120%" id="fx13" primitiveUnits="userSpaceOnUse" width="120%" x="-10%" y="-10%">
   <feGaussianBlur stdDeviation="1.33333 1.33333"/>
  </filter>
  <linearGradient id="fill14" spreadMethod="reflect" x1="1" x2="0" y1="0" y2="1">
   <stop offset="0" stop-color="#95ABEA"/>
   <stop offset="0.5" stop-color="#BFCBF0"/>
   <stop offset="1" stop-color="#E0E5F7"/>
  </linearGradient>
  <linearGradient id="fill15" spreadMethod="reflect" x1="1" x2="0" y1="0" y2="1">
   <stop offset="0" stop-color="#95ABEA"/>
   <stop offset="0.5" stop-color="#BFCBF0"/>
   <stop offset="1" stop-color="#E0E5F7"/>
  </linearGradient>
  <linearGradient id="fill16" spreadMethod="reflect" x1="0.38" x2="0.62" y1="0.24" y2="0.76">
   <stop offset="0" stop-color="#B3C8F5"/>
   <stop offset="0.5" stop-color="#CFDCF8"/>
   <stop offset="1" stop-color="#E7EDFB"/>
  </linearGradient>
  <clipPath id="clip17">
   <rect height="25" id="svg_1" width="21" x="-254" y="-102"/>
  </clipPath>
  <clipPath id="clip18">
   <rect height="47" id="svg_2" width="49" x="-254" y="-96"/>
  </clipPath>
  <clipPath id="clip19">
   <rect height="51" id="svg_3" width="49" x="-254" y="-102"/>
  </clipPath>
  <clipPath id="clip20">
   <rect height="53" id="svg_4" width="47" x="-248" y="-96"/>
  </clipPath>
  <clipPath id="clip21">
   <rect height="59" id="svg_5" width="59" x="-250" y="-98"/>
  </clipPath>
  <clipPath id="clip22">
   <rect height="49" id="svg_6" width="35" x="-244" y="-96"/>
  </clipPath>
  <clipPath id="clip23">
   <rect height="17" id="svg_7" width="27" x="-256" y="-98"/>
  </clipPath>
  <clipPath id="clip24">
   <rect height="19" id="svg_8" width="27" x="-256" y="-98"/>
  </clipPath>
  <clipPath id="clip25">
   <rect height="49" id="svg_9" width="35" x="-246" y="-98"/>
  </clipPath>
  <clipPath id="clip26">
   <rect height="51" id="svg_10" width="39" x="-256" y="-96"/>
  </clipPath>
  <clipPath id="clip27">
   <rect height="53" id="svg_11" width="45" x="-244" y="-98"/>
  </clipPath>
  <clipPath id="clip28">
   <rect height="65" id="svg_12" width="67" x="-254" y="-100"/>
  </clipPath>
  <clipPath id="clip29">
   <rect height="49" id="svg_13" width="45" x="-254" y="-100"/>
  </clipPath>
  <clipPath id="clip30">
   <rect height="27" id="svg_14" width="21" x="-254" y="-102"/>
  </clipPath>
 </defs>
 <g class="layer">
  <title>Layer 1</title>
  <g id="svg_15">
   <text fill="#000000" font-family="Arial,Arial_MSFontService,sans-serif" font-size="37.4" font-weight="bold" id="svg_105" style="cursor: move;" text-anchor="middle" transform="matrix(1.33297 -0.134088 0.0380435 1.35548 334.507 10.3277)" x="18.24" xml:space="preserve" y="346.16">H</text>
   <text fill="#000000" font-family="Arial,Arial_MSFontService,sans-serif" font-size="37.4" font-weight="bold" id="svg_104" text-anchor="middle" transform="rotate(53.4873 373.718 59.3014) matrix(0.713001 -1.13421 1.09297 0.802617 98.1723 195.952)" x="204.27" xml:space="preserve" y="131.69">K</text>
   <text fill="#000000" font-family="Arial,Arial_MSFontService,sans-serif" font-size="37.4" font-weight="bold" id="svg_101" text-anchor="middle" transform="rotate(1.49422 240.5 108.5) matrix(0.966755 -0.927461 0.865726 1.0437 75.4778 125.017)" x="102.95" xml:space="preserve" y="88.64">L</text>
   <text fill="#000000" font-family="Arial,Arial_MSFontService,sans-serif" font-size="37.4" font-weight="bold" id="svg_100" text-anchor="middle" transform="rotate(-10.6829 206.573 146.049) matrix(0.990614 -0.901933 0.838212 1.06592 -89.773 28.3607)" x="119.89" xml:space="preserve" y="224.84">C</text>
   <path d="m369.5,24.07c-129.5,0 -234.47,105.18 -234.47,234.93c0,129.75 104.97,234.93 234.47,234.93c129.5,0 234.47,-105.18 234.47,-234.93c0,-129.75 -104.97,-234.93 -234.47,-234.93zm0,-20.07c140.56,0 254.5,114.17 254.5,255c0,140.83 -113.94,255 -254.5,255c-140.56,0 -254.5,-114.17 -254.5,-255c0,-140.83 113.94,-255 254.5,-255z" fill="url(#fill14)" fill-rule="evenodd" id="svg_16"/>
   <path d="m369.5,27.9l-11.87,0.3l-11.72,0.89l-11.54,1.47l-11.36,2.03l-11.15,2.59l-10.95,3.11l-10.71,3.63l-10.47,4.14l-10.22,4.63l-9.94,5.1l-9.66,5.56l-9.36,6.01l-9.04,6.45l-8.71,6.86l-8.37,7.26l-8.01,7.66l-7.64,8.02l-7.25,8.39l-6.85,8.73l-6.43,9.06l-6,9.38l-5.55,9.67l-5.1,9.97l-4.61,10.23l-4.13,10.5l-3.63,10.73l-3.11,10.97l-2.57,11.18l-2.03,11.38l-1.47,11.57l-0.89,11.73l-0.3,11.9l0.3,11.9l0.89,11.73l1.47,11.57l2.03,11.38l2.57,11.18l3.11,10.97l3.63,10.73l4.13,10.5l4.61,10.23l5.1,9.97l5.55,9.67l6,9.38l6.43,9.06l6.85,8.73l7.25,8.39l7.64,8.02l8.01,7.66l8.37,7.26l8.71,6.86l9.04,6.45l9.36,6.01l9.66,5.56l9.94,5.1l10.22,4.63l10.47,4.14l10.71,3.63l10.95,3.12l11.15,2.57l11.36,2.04l11.54,1.47l11.72,0.89l11.87,0.3l11.87,-0.3l11.72,-0.89l11.54,-1.47l11.36,-2.04l11.15,-2.57l10.95,-3.12l10.71,-3.63l10.47,-4.14l10.22,-4.63l9.94,-5.1l9.66,-5.56l9.36,-6.01l9.04,-6.45l8.71,-6.86l8.37,-7.26l8.01,-7.66l7.64,-8.02l7.25,-8.39l6.85,-8.73l6.43,-9.06l6,-9.38l5.55,-9.67l5.1,-9.97l4.61,-10.23l4.13,-10.5l3.63,-10.73l3.11,-10.97l2.57,-11.18l2.03,-11.38l1.47,-11.57l0.89,-11.73l0.3,-11.9l-0.3,-11.9l-0.89,-11.73l-1.47,-11.57l-2.03,-11.38l-2.57,-11.18l-3.11,-10.97l-3.63,-10.73l-4.13,-10.5l-4.61,-10.23l-5.1,-9.97l-5.55,-9.67l-6,-9.38l-6.43,-9.06l-6.85,-8.73l-7.25,-8.39l-7.64,-8.02l-8.01,-7.66l-8.37,-7.26l-8.71,-6.86l-9.04,-6.45l-9.36,-6.01l-9.66,-5.56l-9.94,-5.1l-10.22,-4.63l-10.47,-4.14l-10.72,-3.63l-10.94,-3.11l-11.15,-2.59l-11.36,-2.03l-11.54,-1.47l-11.72,-0.89l-11.87,-0.3zm12,-2.25l11.84,0.9l11.67,1.49l11.49,2.05l11.28,2.61l11.07,3.15l10.83,3.67l10.59,4.19l10.33,4.67l10.05,5.16l9.77,5.63l9.46,6.08l9.14,6.51l8.81,6.94l8.46,7.34l8.1,7.74l7.73,8.11l7.33,8.48l6.92,8.83l6.5,9.16l6.06,9.48l5.62,9.79l5.15,10.07l4.67,10.35l4.17,10.61l3.67,10.86l3.14,11.08l2.61,11.31l2.05,11.5l1.48,11.7l0.9,11.87l0.31,12.02l-0.31,12.02l-0.9,11.87l-1.48,11.7l-2.05,11.5l-2.61,11.31l-3.14,11.08l-3.67,10.86l-4.17,10.61l-4.67,10.35l-5.15,10.08l-5.62,9.78l-6.06,9.48l-6.5,9.16l-6.92,8.83l-7.33,8.48l-7.73,8.11l-8.1,7.74l-8.46,7.34l-8.81,6.94l-9.14,6.51l-9.46,6.08l-9.77,5.63l-10.05,5.16l-10.33,4.67l-10.59,4.19l-10.83,3.67l-11.07,3.15l-11.28,2.61l-11.49,2.05l-11.67,1.49l-11.84,0.9l-12,0.31l-12,-0.31l-11.84,-0.9l-11.67,-1.49l-11.49,-2.05l-11.28,-2.61l-11.07,-3.15l-10.83,-3.67l-10.59,-4.19l-10.33,-4.67l-10.05,-5.16l-9.77,-5.63l-9.46,-6.08l-9.14,-6.51l-8.81,-6.94l-8.46,-7.34l-8.1,-7.74l-7.73,-8.11l-7.32,-8.48l-6.93,-8.83l-6.5,-9.16l-6.07,-9.48l-5.61,-9.79l-5.15,-10.07l-4.67,-10.35l-4.18,-10.61l-3.66,-10.86l-3.14,-11.08l-2.61,-11.31l-2.05,-11.51l-1.48,-11.69l-0.9,-11.87l-0.31,-12.02l0.31,-12.02l0.9,-11.87l1.48,-11.7l2.05,-11.5l2.61,-11.31l3.14,-11.08l3.66,-10.86l4.18,-10.61l4.67,-10.35l5.15,-10.07l5.61,-9.79l6.07,-9.48l6.5,-9.16l6.93,-8.83l7.32,-8.48l7.73,-8.11l8.1,-7.74l8.46,-7.34l8.81,-6.94l9.14,-6.51l9.46,-6.08l9.77,-5.63l10.05,-5.16l10.33,-4.67l10.59,-4.19l10.83,-3.67l11.07,-3.15l11.28,-2.61l11.49,-2.05l11.67,-1.49l11.84,-0.9l12,-0.31l12,0.31zm-12,-2.86l-12.13,0.3l-11.97,0.92l-11.8,1.5l-11.61,2.08l-11.41,2.63l-11.19,3.19l-10.95,3.71l-10.71,4.23l-10.44,4.73l-10.16,5.22l-9.88,5.69l-9.56,6.14l-9.25,6.59l-8.9,7.01l-8.56,7.42l-8.18,7.82l-7.81,8.21l-7.41,8.57l-7,8.92l-6.57,9.26l-6.13,9.58l-5.68,9.9l-5.2,10.18l-4.73,10.47l-4.22,10.72l-3.7,10.98l-3.18,11.21l-2.63,11.43l-2.08,11.63l-1.5,11.82l-0.9,12l-0.31,12.15l0.31,12.15l0.9,12l1.5,11.82l2.08,11.63l2.63,11.43l3.18,11.21l3.7,10.98l4.22,10.72l4.73,10.47l5.2,10.18l5.68,9.9l6.13,9.58l6.57,9.26l7,8.92l7.41,8.57l7.81,8.21l8.18,7.82l8.56,7.42l8.9,7.01l9.25,6.59l9.56,6.14l9.88,5.69l10.16,5.22l10.44,4.73l10.71,4.23l10.95,3.71l11.19,3.19l11.41,2.63l11.61,2.08l11.8,1.5l11.97,0.91l12.13,0.31l12.13,-0.31l11.97,-0.91l11.8,-1.5l11.61,-2.08l11.41,-2.63l11.19,-3.19l10.95,-3.71l10.71,-4.23l10.44,-4.73l10.17,-5.22l9.87,-5.69l9.56,-6.14l9.25,-6.59l8.9,-7.01l8.55,-7.42l8.19,-7.82l7.81,-8.21l7.41,-8.57l7,-8.92l6.57,-9.26l6.13,-9.58l5.68,-9.9l5.2,-10.18l4.73,-10.47l4.22,-10.72l3.7,-10.98l3.18,-11.21l2.63,-11.43l2.07,-11.63l1.5,-11.82l0.92,-12l0.3,-12.15l-0.3,-12.15l-0.92,-12l-1.5,-11.82l-2.07,-11.63l-2.63,-11.43l-3.18,-11.21l-3.7,-10.98l-4.22,-10.72l-4.73,-10.47l-5.2,-10.18l-5.68,-9.9l-6.13,-9.58l-6.57,-9.26l-7,-8.92l-7.41,-8.57l-7.81,-8.21l-8.19,-7.82l-8.55,-7.42l-8.9,-7.01l-9.25,-6.59l-9.56,-6.14l-9.87,-5.69l-10.17,-5.22l-10.44,-4.73l-10.71,-4.23l-10.95,-3.71l-11.19,-3.19l-11.41,-2.63l-11.61,-2.08l-11.8,-1.5l-11.97,-0.92l-12.13,-0.3zm12.26,-2.25l12.1,0.92l11.93,1.52l11.73,2.1l11.53,2.67l11.32,3.22l11.07,3.75l10.82,4.28l10.56,4.78l10.28,5.27l9.98,5.75l9.67,6.21l9.34,6.66l9,7.09l8.65,7.5l8.27,7.91l7.89,8.29l7.49,8.66l7.08,9.02l6.64,9.36l6.2,9.69l5.73,10l5.27,10.29l4.77,10.58l4.27,10.85l3.74,11.09l3.22,11.33l2.66,11.55l2.09,11.76l1.52,11.95l0.92,12.13l0.31,12.28l-0.31,12.28l-0.92,12.13l-1.52,11.95l-2.09,11.75l-2.66,11.56l-3.22,11.33l-3.74,11.09l-4.27,10.85l-4.77,10.57l-5.27,10.3l-5.73,10l-6.2,9.69l-6.64,9.36l-7.08,9.02l-7.49,8.66l-7.89,8.29l-8.27,7.91l-8.65,7.5l-9,7.09l-9.34,6.66l-9.67,6.21l-9.98,5.75l-10.28,5.27l-10.56,4.78l-10.82,4.28l-11.07,3.75l-11.32,3.22l-11.53,2.67l-11.73,2.1l-11.93,1.52l-12.1,0.92l-12.26,0.31l-12.26,-0.31l-12.1,-0.92l-11.93,-1.52l-11.73,-2.1l-11.54,-2.67l-11.31,-3.22l-11.07,-3.75l-10.82,-4.28l-10.56,-4.78l-10.28,-5.27l-9.98,-5.75l-9.67,-6.21l-9.34,-6.66l-9,-7.09l-8.65,-7.5l-8.27,-7.91l-7.89,-8.29l-7.49,-8.66l-7.07,-9.02l-6.65,-9.36l-6.2,-9.69l-5.74,-10l-5.26,-10.3l-4.77,-10.57l-4.27,-10.85l-3.75,-11.09l-3.21,-11.33l-2.66,-11.56l-2.09,-11.75l-1.52,-11.95l-0.92,-12.13l-0.31,-12.28l0.31,-12.28l0.92,-12.13l1.52,-11.95l2.09,-11.75l2.66,-11.56l3.21,-11.33l3.75,-11.09l4.27,-10.85l4.77,-10.57l5.26,-10.3l5.74,-10l6.2,-9.69l6.65,-9.36l7.07,-9.02l7.49,-8.66l7.89,-8.29l8.27,-7.91l8.65,-7.5l9,-7.09l9.34,-6.66l9.67,-6.21l9.98,-5.75l10.28,-5.27l10.56,-4.78l10.82,-4.28l11.07,-3.75l11.31,-3.22l11.54,-2.67l11.73,-2.1l11.93,-1.52l12.1,-0.92l12.26,-0.31l12.26,0.31zm-12.26,-20.37l13.29,0.33l13.12,1l12.93,1.65l12.72,2.27l12.5,2.89l12.26,3.49l12.01,4.07l11.73,4.64l11.44,5.18l11.14,5.72l10.82,6.23l10.48,6.74l10.13,7.21l9.76,7.69l9.37,8.13l8.97,8.57l8.56,8.99l8.11,9.39l7.67,9.78l7.21,10.14l6.71,10.5l6.22,10.84l5.71,11.16l5.17,11.47l4.63,11.76l4.06,12.02l3.48,12.29l2.89,12.52l2.27,12.75l1.64,12.95l1,13.14l0.34,13.32l-0.34,13.32l-1,13.14l-1.64,12.95l-2.27,12.75l-2.89,12.52l-3.48,12.29l-4.06,12.02l-4.63,11.76l-5.17,11.46l-5.71,11.17l-6.22,10.83l-6.71,10.51l-7.21,10.14l-7.67,9.78l-8.11,9.39l-8.56,8.99l-8.97,8.57l-9.37,8.14l-9.76,7.68l-10.13,7.22l-10.48,6.73l-10.82,6.23l-11.14,5.72l-11.44,5.18l-11.73,4.64l-12.01,4.07l-12.26,3.48l-12.5,2.9l-12.72,2.27l-12.93,1.65l-13.12,1l-13.29,0.34l-13.29,-0.34l-13.12,-1l-12.93,-1.65l-12.72,-2.27l-12.5,-2.9l-12.26,-3.48l-12.01,-4.07l-11.73,-4.64l-11.44,-5.18l-11.14,-5.72l-10.82,-6.23l-10.48,-6.73l-10.13,-7.22l-9.76,-7.68l-9.37,-8.14l-8.97,-8.57l-8.56,-8.99l-8.11,-9.39l-7.67,-9.78l-7.2,-10.14l-6.72,-10.51l-6.22,-10.83l-5.71,-11.17l-5.17,-11.46l-4.63,-11.76l-4.06,-12.02l-3.48,-12.29l-2.89,-12.52l-2.27,-12.75l-1.64,-12.95l-1,-13.14l-0.33,-13.32l0.33,-13.32l1,-13.14l1.64,-12.95l2.27,-12.75l2.89,-12.52l3.48,-12.29l4.06,-12.02l4.63,-11.76l5.17,-11.47l5.71,-11.16l6.22,-10.84l6.72,-10.5l7.2,-10.14l7.67,-9.78l8.11,-9.39l8.56,-8.99l8.97,-8.57l9.37,-8.13l9.76,-7.69l10.13,-7.21l10.48,-6.74l10.82,-6.23l11.14,-5.72l11.44,-5.18l11.73,-4.64l12.01,-4.07l12.26,-3.49l12.5,-2.89l12.72,-2.27l12.93,-1.65l13.12,-1l13.29,-0.33zm-13.16,2.89l-12.99,0.99l-12.8,1.62l-12.6,2.26l-12.37,2.86l-12.14,3.45l-11.89,4.03l-11.61,4.59l-11.33,5.14l-11.03,5.65l-10.71,6.17l-10.38,6.67l-10.03,7.15l-9.66,7.61l-9.28,8.05l-8.88,8.48l-8.47,8.91l-8.04,9.29l-7.59,9.68l-7.14,10.05l-6.65,10.4l-6.16,10.73l-5.65,11.05l-5.12,11.36l-4.58,11.63l-4.02,11.91l-3.45,12.16l-2.85,12.4l-2.25,12.62l-1.63,12.83l-0.98,13.01l-0.34,13.19l0.34,13.19l0.98,13.01l1.63,12.83l2.25,12.62l2.85,12.4l3.45,12.16l4.02,11.91l4.58,11.63l5.12,11.36l5.65,11.05l6.16,10.73l6.65,10.4l7.14,10.05l7.59,9.68l8.04,9.3l8.47,8.9l8.88,8.48l9.28,8.05l9.66,7.61l10.03,7.15l10.38,6.66l10.71,6.18l11.03,5.65l11.33,5.14l11.61,4.59l11.89,4.03l12.14,3.45l12.37,2.86l12.6,2.26l12.8,1.63l12.99,0.99l13.16,0.33l13.16,-0.33l12.99,-0.99l12.8,-1.63l12.6,-2.26l12.37,-2.86l12.14,-3.45l11.89,-4.03l11.61,-4.59l11.33,-5.14l11.03,-5.65l10.71,-6.18l10.38,-6.66l10.03,-7.15l9.66,-7.61l9.28,-8.05l8.88,-8.48l8.47,-8.9l8.04,-9.3l7.59,-9.68l7.14,-10.05l6.65,-10.4l6.16,-10.73l5.64,-11.05l5.13,-11.36l4.58,-11.63l4.02,-11.91l3.45,-12.16l2.85,-12.4l2.25,-12.62l1.63,-12.83l0.99,-13.01l0.33,-13.19l-0.33,-13.19l-0.99,-13.01l-1.63,-12.83l-2.25,-12.62l-2.85,-12.4l-3.45,-12.16l-4.02,-11.91l-4.58,-11.63l-5.13,-11.36l-5.64,-11.05l-6.16,-10.73l-6.65,-10.4l-7.14,-10.05l-7.59,-9.68l-8.04,-9.29l-8.47,-8.91l-8.88,-8.48l-9.28,-8.05l-9.66,-7.61l-10.03,-7.15l-10.38,-6.67l-10.71,-6.17l-11.03,-5.65l-11.33,-5.14l-11.61,-4.59l-11.89,-4.03l-12.14,-3.45l-12.37,-2.86l-12.6,-2.26l-12.8,-1.62l-12.99,-0.99l-13.16,-0.34l-13.16,0.34zm13.16,2.22l13.03,0.33l12.86,0.98l12.67,1.61l12.47,2.23l12.25,2.84l12.02,3.42l11.77,3.98l11.49,4.55l11.22,5.08l10.92,5.6l10.6,6.11l10.28,6.6l9.92,7.07l9.57,7.54l9.19,7.97l8.79,8.4l8.39,8.81l7.96,9.21l7.52,9.58l7.06,9.95l6.58,10.3l6.1,10.62l5.59,10.94l5.07,11.24l4.54,11.52l3.98,11.79l3.41,12.04l2.83,12.27l2.22,12.5l1.61,12.7l0.98,12.88l0.33,13.06l-0.33,13.06l-0.98,12.88l-1.61,12.7l-2.22,12.5l-2.83,12.27l-3.41,12.04l-3.98,11.79l-4.54,11.52l-5.07,11.24l-5.59,10.94l-6.1,10.62l-6.58,10.3l-7.06,9.95l-7.52,9.58l-7.96,9.21l-8.39,8.81l-8.79,8.4l-9.19,7.97l-9.57,7.54l-9.92,7.07l-10.28,6.6l-10.6,6.11l-10.92,5.6l-11.22,5.08l-11.49,4.55l-11.77,3.99l-12.02,3.41l-12.25,2.84l-12.46,2.23l-12.68,1.61l-12.86,0.98l-13.03,0.33l-13.03,-0.33l-12.86,-0.98l-12.68,-1.61l-12.46,-2.23l-12.25,-2.84l-12.02,-3.41l-11.77,-3.99l-11.49,-4.55l-11.22,-5.08l-10.92,-5.6l-10.6,-6.11l-10.28,-6.6l-9.92,-7.07l-9.57,-7.54l-9.19,-7.97l-8.79,-8.4l-8.39,-8.81l-7.96,-9.21l-7.52,-9.58l-7.06,-9.95l-6.58,-10.3l-6.1,-10.62l-5.59,-10.94l-5.07,-11.24l-4.54,-11.52l-3.98,-11.79l-3.41,-12.04l-2.83,-12.27l-2.22,-12.5l-1.61,-12.7l-0.98,-12.88l-0.33,-13.06l0.33,-13.06l0.98,-12.88l1.61,-12.7l2.22,-12.5l2.83,-12.27l3.41,-12.04l3.98,-11.79l4.54,-11.52l5.07,-11.24l5.59,-10.94l6.1,-10.62l6.58,-10.3l7.06,-9.95l7.52,-9.58l7.96,-9.21l8.39,-8.81l8.79,-8.4l9.19,-7.97l9.57,-7.54l9.92,-7.07l10.28,-6.6l10.6,-6.11l10.92,-5.6l11.22,-5.08l11.49,-4.55l11.77,-3.98l12.02,-3.42l12.25,-2.84l12.47,-2.23l12.67,-1.61l12.86,-0.98l13.03,-0.33zm-12.9,2.88l-12.73,0.97l-12.55,1.6l-12.34,2.21l-12.13,2.8l-11.89,3.39l-11.64,3.94l-11.39,4.5l-11.1,5.03l-10.81,5.55l-10.49,6.04l-10.17,6.53l-9.83,7.01l-9.47,7.46l-9.1,7.89l-8.71,8.32l-8.3,8.72l-7.88,9.11l-7.44,9.49l-6.99,9.85l-6.52,10.19l-6.03,10.52l-5.54,10.83l-5.02,11.12l-4.48,11.41l-3.95,11.67l-3.37,11.92l-2.8,12.15l-2.21,12.36l-1.59,12.57l-0.97,12.76l-0.33,12.93l0.33,12.93l0.97,12.76l1.59,12.57l2.21,12.36l2.8,12.15l3.37,11.92l3.95,11.67l4.48,11.41l5.02,11.12l5.54,10.83l6.03,10.52l6.52,10.19l6.99,9.85l7.44,9.49l7.88,9.11l8.3,8.72l8.71,8.32l9.1,7.9l9.47,7.45l9.83,7l10.17,6.54l10.49,6.05l10.81,5.54l11.1,5.03l11.39,4.5l11.64,3.95l11.89,3.38l12.13,2.8l12.34,2.21l12.55,1.6l12.73,0.97l12.9,0.32l12.9,-0.32l12.73,-0.97l12.55,-1.6l12.34,-2.21l12.13,-2.8l11.89,-3.38l11.64,-3.95l11.39,-4.5l11.1,-5.03l10.81,-5.54l10.49,-6.05l10.17,-6.54l9.83,-7l9.47,-7.45l9.1,-7.9l8.71,-8.32l8.29,-8.72l7.88,-9.11l7.45,-9.49l6.99,-9.85l6.52,-10.19l6.03,-10.52l5.54,-10.83l5.02,-11.12l4.49,-11.41l3.94,-11.67l3.37,-11.92l2.8,-12.15l2.21,-12.36l1.59,-12.57l0.97,-12.76l0.32,-12.93l-0.32,-12.93l-0.97,-12.76l-1.59,-12.57l-2.21,-12.36l-2.8,-12.15l-3.37,-11.92l-3.94,-11.67l-4.49,-11.41l-5.02,-11.12l-5.54,-10.83l-6.03,-10.52l-6.52,-10.19l-6.99,-9.85l-7.45,-9.49l-7.88,-9.11l-8.29,-8.72l-8.71,-8.32l-9.1,-7.89l-9.47,-7.46l-9.83,-7.01l-10.17,-6.53l-10.49,-6.04l-10.81,-5.55l-11.1,-5.03l-11.39,-4.5l-11.64,-3.94l-11.89,-3.39l-12.13,-2.8l-12.34,-2.21l-12.55,-1.6l-12.73,-0.97l-12.9,-0.33l-12.9,0.33z" fill="#172C51" id="svg_17">C</path>
   <path d="m370,98.45c-88.67,0 -160.55,71.88 -160.55,160.55c0,88.67 71.88,160.55 160.55,160.55c88.67,0 160.55,-71.88 160.55,-160.55c0,-88.67 -71.88,-160.55 -160.55,-160.55zm0,-10.45c94.44,0 171,76.56 171,171c0,94.44 -76.56,171 -171,171c-94.44,0 -171,-76.56 -171,-171c0,-94.44 76.56,-171 171,-171z" fill="url(#fill15)" fill-rule="evenodd" id="svg_18"/>
   <path d="m370,100.62l-8.15,0.21l-8.05,0.61l-7.92,1l-7.8,1.4l-7.66,1.77l-7.49,2.12l-14.58,5.34l-13.84,6.67l-13.06,7.93l-12.19,9.12l-11.25,10.22l-10.22,11.25l-9.12,12.19l-7.93,13.06l-6.67,13.84l-5.34,14.58l-2.12,7.49l-1.77,7.66l-1.4,7.8l-1,7.92l-0.61,8.05l-0.21,8.15l0.21,8.15l0.61,8.05l1,7.92l1.4,7.8l1.77,7.66l2.12,7.49l5.34,14.58l6.67,13.84l7.93,13.06l9.12,12.19l10.22,11.25l11.25,10.22l12.19,9.12l13.06,7.93l13.84,6.67l14.58,5.34l7.49,2.12l7.66,1.77l7.8,1.39l7.92,1.01l8.05,0.61l8.15,0.21l8.15,-0.21l8.05,-0.61l7.92,-1.01l7.8,-1.39l7.66,-1.77l7.49,-2.12l14.58,-5.34l13.84,-6.67l13.06,-7.93l12.19,-9.12l11.25,-10.22l10.22,-11.25l9.12,-12.19l7.93,-13.06l6.67,-13.84l5.34,-14.58l2.12,-7.49l1.77,-7.66l1.39,-7.8l1.01,-7.92l0.61,-8.05l0.21,-8.15l-0.21,-8.15l-0.61,-8.05l-1.01,-7.92l-1.39,-7.8l-1.77,-7.66l-2.12,-7.49l-5.34,-14.58l-6.67,-13.84l-7.93,-13.06l-9.12,-12.19l-10.22,-11.25l-11.25,-10.22l-12.19,-9.12l-13.06,-7.93l-13.84,-6.67l-14.58,-5.34l-7.49,-2.12l-7.66,-1.77l-7.8,-1.4l-7.92,-1l-8.05,-0.61l-8.15,-0.21zm8.23,-1.24l8.11,0.62l8,1.02l7.87,1.4l7.73,1.79l7.58,2.15l14.69,5.38l13.97,6.73l13.18,8l12.3,9.2l11.35,10.32l10.32,11.35l9.2,12.3l8,13.18l6.73,13.97l5.38,14.69l2.15,7.58l1.79,7.73l1.4,7.87l1.02,8l0.62,8.11l0.21,8.23l-0.21,8.23l-0.62,8.11l-1.02,8l-1.4,7.87l-1.79,7.73l-2.15,7.58l-5.38,14.69l-6.73,13.97l-8,13.18l-9.2,12.3l-10.32,11.35l-11.35,10.32l-12.3,9.2l-13.18,8.01l-13.97,6.72l-14.69,5.38l-7.58,2.15l-7.73,1.79l-7.87,1.4l-8,1.02l-8.11,0.62l-8.23,0.21l-8.23,-0.21l-8.11,-0.62l-8,-1.02l-7.87,-1.4l-7.73,-1.79l-7.58,-2.15l-14.69,-5.38l-13.97,-6.72l-13.18,-8.01l-12.3,-9.2l-11.35,-10.32l-10.32,-11.35l-9.2,-12.3l-8.01,-13.18l-6.72,-13.97l-5.38,-14.69l-2.15,-7.58l-1.79,-7.73l-1.4,-7.87l-1.02,-8l-0.62,-8.11l-0.2,-8.23l0.2,-8.23l0.62,-8.11l1.02,-8l1.4,-7.87l1.79,-7.73l2.15,-7.58l5.38,-14.69l6.72,-13.97l8.01,-13.18l9.2,-12.3l10.32,-11.35l11.35,-10.32l12.3,-9.2l13.18,-8l13.97,-6.73l14.69,-5.38l7.58,-2.15l7.73,-1.79l7.87,-1.4l8,-1.02l8.11,-0.62l8.23,-0.2l8.23,0.2zm-8.23,-1.65l-8.3,0.21l-8.19,0.62l-8.07,1.03l-7.94,1.42l-7.8,1.8l-7.67,2.17l-14.8,5.42l-14.1,6.79l-13.3,8.08l-12.41,9.29l-11.46,10.4l-10.4,11.46l-9.29,12.41l-8.08,13.3l-6.79,14.1l-5.42,14.81l-2.17,7.66l-1.8,7.8l-1.42,7.94l-1.03,8.07l-0.62,8.19l-0.21,8.3l0.21,8.3l0.62,8.19l1.03,8.07l1.42,7.94l1.8,7.8l2.17,7.66l5.42,14.81l6.79,14.1l8.08,13.3l9.29,12.41l10.4,11.46l11.46,10.4l12.41,9.29l13.3,8.08l14.1,6.79l14.8,5.42l7.67,2.17l7.8,1.8l7.94,1.42l8.07,1.03l8.19,0.62l8.3,0.21l8.3,-0.21l8.19,-0.62l8.07,-1.03l7.94,-1.42l7.8,-1.8l7.67,-2.17l14.8,-5.42l14.1,-6.79l13.3,-8.08l12.41,-9.29l11.46,-10.4l10.4,-11.46l9.29,-12.41l8.08,-13.3l6.79,-14.1l5.42,-14.81l2.17,-7.66l1.8,-7.8l1.42,-7.94l1.03,-8.07l0.62,-8.19l0.21,-8.3l-0.21,-8.3l-0.62,-8.19l-1.03,-8.07l-1.42,-7.94l-1.8,-7.8l-2.17,-7.66l-5.42,-14.81l-6.79,-14.1l-8.08,-13.3l-9.29,-12.41l-10.4,-11.46l-11.46,-10.4l-12.41,-9.29l-13.3,-8.08l-14.1,-6.79l-14.8,-5.42l-7.67,-2.17l-7.8,-1.8l-7.94,-1.42l-8.07,-1.03l-8.19,-0.62l-8.3,-0.21zm8.37,-1.23l8.26,0.63l8.15,1.03l8.01,1.43l7.87,1.82l7.75,2.2l14.93,5.46l14.22,6.85l13.42,8.15l12.52,9.37l11.56,10.5l10.5,11.56l9.37,12.52l8.15,13.42l6.85,14.22l5.46,14.93l2.2,7.75l1.82,7.87l1.43,8.01l1.04,8.15l0.62,8.26l0.22,8.37l-0.22,8.37l-0.62,8.26l-1.04,8.15l-1.43,8.01l-1.82,7.87l-2.2,7.75l-5.46,14.93l-6.85,14.22l-8.15,13.42l-9.37,12.52l-10.5,11.56l-11.56,10.5l-12.52,9.37l-13.42,8.15l-14.22,6.85l-14.93,5.46l-7.75,2.2l-7.87,1.82l-8.01,1.43l-8.15,1.04l-8.26,0.62l-8.37,0.22l-8.37,-0.22l-8.26,-0.62l-8.15,-1.04l-8.01,-1.43l-7.87,-1.82l-7.75,-2.2l-14.93,-5.46l-14.22,-6.85l-13.42,-8.15l-12.52,-9.37l-11.56,-10.5l-10.5,-11.56l-9.37,-12.52l-8.15,-13.42l-6.85,-14.22l-5.46,-14.93l-2.2,-7.75l-1.82,-7.87l-1.43,-8.01l-1.03,-8.15l-0.63,-8.26l-0.21,-8.37l0.21,-8.37l0.63,-8.26l1.03,-8.15l1.43,-8.01l1.82,-7.87l2.2,-7.75l5.46,-14.93l6.85,-14.22l8.15,-13.42l9.37,-12.52l10.5,-11.56l11.56,-10.5l12.52,-9.37l13.42,-8.15l14.22,-6.85l14.93,-5.46l7.75,-2.2l7.87,-1.82l8.01,-1.43l8.15,-1.03l8.26,-0.63l8.37,-0.22l8.37,0.22zm-8.37,-10.67l8.91,0.23l8.79,0.67l8.67,1.1l8.53,1.52l8.37,1.93l8.22,2.34l8.05,2.72l7.89,3.11l15.11,7.28l14.28,8.68l13.33,9.97l12.3,11.17l11.18,12.3l9.96,13.33l8.68,14.28l7.28,15.11l3.11,7.89l2.72,8.05l2.34,8.22l1.93,8.37l1.52,8.53l1.1,8.67l0.67,8.79l0.23,8.91l-0.23,8.91l-0.67,8.79l-1.1,8.67l-1.52,8.53l-1.93,8.37l-2.34,8.22l-2.72,8.05l-3.11,7.89l-7.28,15.11l-8.68,14.28l-9.96,13.33l-11.18,12.3l-12.3,11.18l-13.33,9.96l-14.28,8.68l-15.11,7.28l-7.89,3.11l-8.05,2.72l-8.22,2.34l-8.37,1.93l-8.53,1.52l-8.67,1.1l-8.79,0.67l-8.91,0.23l-8.91,-0.23l-8.79,-0.67l-8.67,-1.1l-8.53,-1.52l-8.37,-1.93l-8.22,-2.34l-8.05,-2.72l-7.89,-3.11l-15.11,-7.28l-14.28,-8.68l-13.33,-9.96l-12.3,-11.18l-11.17,-12.3l-9.97,-13.33l-8.68,-14.28l-7.28,-15.11l-3.11,-7.89l-2.72,-8.05l-2.34,-8.22l-1.93,-8.37l-1.52,-8.53l-1.1,-8.67l-0.67,-8.79l-0.23,-8.91l0.23,-8.91l0.67,-8.79l1.1,-8.67l1.52,-8.53l1.94,-8.37l2.33,-8.22l2.72,-8.05l3.11,-7.89l7.28,-15.11l8.68,-14.28l9.97,-13.33l11.17,-12.3l12.3,-11.17l13.33,-9.97l14.28,-8.68l15.11,-7.28l7.89,-3.11l8.05,-2.72l8.22,-2.34l8.37,-1.93l8.53,-1.52l8.67,-1.1l8.79,-0.67l8.91,-0.23zm-8.84,1.67l-8.72,0.66l-8.59,1.1l-8.46,1.51l-8.31,1.91l-8.15,2.32l-7.97,2.7l-7.81,3.08l-15,7.22l-14.16,8.6l-13.22,9.89l-12.2,11.08l-11.08,12.2l-9.88,13.22l-8.61,14.16l-7.22,15l-3.08,7.81l-2.7,7.98l-2.32,8.14l-1.91,8.31l-1.51,8.46l-1.1,8.59l-0.66,8.72l-0.22,8.84l0.22,8.84l0.66,8.72l1.1,8.59l1.51,8.46l1.91,8.31l2.32,8.14l2.7,7.98l3.08,7.81l7.22,15l8.61,14.16l9.88,13.22l11.08,12.2l12.2,11.08l13.22,9.88l14.16,8.61l15,7.22l7.81,3.08l7.97,2.7l8.15,2.32l8.31,1.91l8.46,1.51l8.59,1.1l8.72,0.66l8.84,0.22l8.84,-0.22l8.72,-0.66l8.59,-1.1l8.46,-1.51l8.31,-1.91l8.15,-2.32l7.97,-2.7l7.81,-3.08l15,-7.22l14.16,-8.61l13.22,-9.88l12.2,-11.08l11.08,-12.2l9.88,-13.22l8.61,-14.16l7.22,-15l3.08,-7.81l2.7,-7.98l2.32,-8.14l1.91,-8.31l1.51,-8.46l1.1,-8.59l0.66,-8.72l0.22,-8.84l-0.22,-8.84l-0.66,-8.72l-1.1,-8.59l-1.51,-8.46l-1.91,-8.31l-2.32,-8.14l-2.7,-7.98l-3.08,-7.81l-7.22,-15l-8.61,-14.16l-9.88,-13.22l-11.08,-12.2l-12.2,-11.08l-13.22,-9.89l-14.16,-8.6l-15,-7.22l-7.81,-3.08l-7.97,-2.7l-8.15,-2.32l-8.31,-1.91l-8.46,-1.51l-8.59,-1.1l-8.72,-0.66l-8.84,-0.22l-8.84,0.22zm8.84,1.22l8.76,0.22l8.65,0.66l8.52,1.08l8.39,1.5l8.24,1.9l8.08,2.3l7.91,2.68l7.72,3.04l14.89,7.17l14.04,8.53l13.11,9.81l12.09,10.99l10.99,12.09l9.81,13.11l8.53,14.04l7.17,14.89l3.05,7.72l2.67,7.91l2.3,8.08l1.9,8.24l1.5,8.39l1.08,8.52l0.66,8.65l0.22,8.76l-0.22,8.76l-0.66,8.65l-1.08,8.52l-1.5,8.39l-1.9,8.24l-2.3,8.08l-2.67,7.91l-3.05,7.72l-7.17,14.89l-8.53,14.04l-9.81,13.11l-10.99,12.09l-12.09,10.99l-13.11,9.81l-14.04,8.53l-14.89,7.17l-7.72,3.05l-7.91,2.67l-8.08,2.3l-8.24,1.9l-8.39,1.5l-8.52,1.08l-8.65,0.66l-8.76,0.22l-8.76,-0.22l-8.65,-0.66l-8.52,-1.08l-8.39,-1.5l-8.24,-1.9l-8.08,-2.3l-7.91,-2.67l-7.72,-3.05l-14.89,-7.17l-14.04,-8.53l-13.11,-9.81l-12.09,-10.99l-10.99,-12.09l-9.81,-13.11l-8.53,-14.04l-7.17,-14.89l-3.04,-7.72l-2.68,-7.91l-2.3,-8.08l-1.9,-8.24l-1.5,-8.39l-1.08,-8.52l-0.66,-8.65l-0.22,-8.76l0.22,-8.76l0.66,-8.65l1.08,-8.52l1.5,-8.39l1.9,-8.24l2.3,-8.08l2.68,-7.91l3.04,-7.72l7.17,-14.89l8.53,-14.04l9.81,-13.11l10.99,-12.09l12.09,-10.99l13.11,-9.81l14.04,-8.53l14.89,-7.17l7.72,-3.04l7.91,-2.68l8.08,-2.3l8.24,-1.9l8.39,-1.5l8.52,-1.08l8.65,-0.66l8.76,-0.22zm-8.69,1.67l-8.57,0.65l-8.45,1.07l-8.32,1.49l-8.17,1.88l-8.01,2.28l-7.84,2.65l-7.64,3.01l-14.78,7.12l-13.92,8.46l-13,9.72l-11.99,10.9l-10.9,11.99l-9.72,13l-8.45,13.92l-7.12,14.78l-3.02,7.64l-2.65,7.84l-2.28,8.01l-1.88,8.17l-1.49,8.32l-1.07,8.45l-0.65,8.57l-0.22,8.69l0.22,8.69l0.65,8.57l1.07,8.45l1.49,8.32l1.88,8.17l2.28,8.01l2.65,7.84l3.01,7.64l7.13,14.78l8.45,13.92l9.72,13l10.9,11.99l11.99,10.9l13,9.72l13.92,8.45l14.78,7.13l7.64,3.01l7.84,2.65l8.01,2.28l8.17,1.88l8.32,1.49l8.45,1.07l8.57,0.65l8.69,0.22l8.69,-0.22l8.57,-0.65l8.45,-1.07l8.32,-1.49l8.17,-1.88l8.01,-2.28l7.84,-2.65l7.64,-3.01l14.78,-7.13l13.92,-8.45l13,-9.72l11.99,-10.9l10.9,-11.99l9.72,-13l8.46,-13.92l7.12,-14.78l3.01,-7.64l2.65,-7.84l2.28,-8.01l1.88,-8.17l1.49,-8.32l1.07,-8.45l0.65,-8.57l0.22,-8.69l-0.22,-8.69l-0.65,-8.57l-1.07,-8.45l-1.49,-8.32l-1.88,-8.17l-2.28,-8.01l-2.65,-7.84l-3.01,-7.64l-7.12,-14.78l-8.46,-13.92l-9.72,-13l-10.9,-11.99l-11.99,-10.9l-13,-9.72l-13.92,-8.46l-14.78,-7.11l-7.64,-3.02l-7.84,-2.65l-8.01,-2.28l-8.17,-1.88l-8.32,-1.49l-8.45,-1.07l-8.57,-0.65l-8.69,-0.22l-8.69,0.22z" fill="#172C51" id="svg_19" transform="matrix(1 0 0 1 0 0)"/>
   <path d="m664.92,37.33l-44.61,99.14l110.72,29.37l-656.46,314.99l44.58,-99.66l-110.36,-29.01l656.13,-314.83z" fill="url(#fill16)" fill-rule="evenodd" id="svg_20"/>
   <path d="m670.35,31.76l-46.32,102.94l114.67,30.42l-669.53,321.26l46.26,-103.43l-114.34,-30.06l669.26,-321.13zm-664.13,320.65l111.69,29.35l-45.14,100.92l660.82,-317.08l-112.04,-29.72l45.18,-100.41l-660.51,316.94zm656.89,-313.23l-44.04,97.88l109.4,29.02l-652.09,312.9l44.01,-98.4l-109.04,-28.66l651.76,-312.74zm-646.63,312.25l106.39,27.96l-42.89,95.89l643.38,-308.72l-106.77,-28.32l42.9,-95.35l-643.01,308.54z" fill="#172C51" id="svg_21"/>
   <text fill="#FFFFFF" font-family="Arial Black,Arial Black_MSFontService,sans-serif" font-size="64" font-weight="900" id="svg_22" transform="matrix(1 0 0 1 0 0) matrix(0.901581 -0.432611 0.432611 0.901581 466.491 460)" x="-211.2" y="-225.57">COLLECTED</text>
   <g clip-path="url(#clip17)" filter="url(#fx0)" id="svg_23" transform="translate(435 268)">
    <g id="svg_24">
     <path d="m-246.93,-84.75l4.5,-11.17c0.06,-0.14 0.14,-0.26 0.24,-0.35c0.1,-0.1 0.24,-0.15 0.43,-0.17c0.18,-0.02 0.4,-0.01 0.65,0.04c0.25,0.05 0.54,0.15 0.88,0.28c0.69,0.28 1.14,0.56 1.34,0.82c0.21,0.27 0.25,0.56 0.12,0.86l-4.5,11.17c-0.13,0.32 -0.36,0.5 -0.7,0.55c-0.34,0.05 -0.85,-0.06 -1.53,-0.33c-0.68,-0.28 -1.12,-0.55 -1.32,-0.81c-0.2,-0.27 -0.24,-0.57 -0.11,-0.89z" fill-rule="evenodd" id="svg_25"/>
    </g>
   </g>
   <path d="m186.19,182.58l4.5,-11.17c0.06,-0.14 0.14,-0.26 0.24,-0.35c0.1,-0.1 0.24,-0.15 0.42,-0.17c0.19,-0.02 0.4,-0.01 0.65,0.04c0.25,0.05 0.55,0.14 0.88,0.28c0.7,0.28 1.15,0.55 1.35,0.82c0.2,0.27 0.24,0.56 0.12,0.86l-4.5,11.17c-0.13,0.32 -0.37,0.5 -0.71,0.55c-0.34,0.05 -0.85,-0.06 -1.52,-0.34c-0.68,-0.27 -1.12,-0.54 -1.32,-0.81c-0.21,-0.26 -0.24,-0.56 -0.11,-0.88z" fill-rule="evenodd" id="svg_26"/>
   <text fill="#000000" fill-opacity="0" font-family="Arial,Arial_MSFontService,sans-serif" font-size="13.74" id="svg_27" x="186.11" y="182.9">-</text>
   <g clip-path="url(#clip18)" filter="url(#fx1)" id="svg_28" transform="matrix(1 0 0 1 0 0)">
    <g id="svg_29">
     <path d="m191.4,132.48c0.48,-0.67 1.03,-1.3 1.63,-1.89c0.61,-0.59 1.23,-1.12 1.85,-1.58c0.63,-0.46 1.23,-0.83 1.81,-1.13c0.58,-0.29 1,-0.46 1.25,-0.5c0.26,-0.04 0.44,-0.05 0.56,-0.04c0.12,0.02 0.26,0.06 0.41,0.12c0.16,0.07 0.34,0.16 0.53,0.28c0.2,0.12 0.45,0.28 0.74,0.5c0.28,0.2 0.53,0.39 0.73,0.57c0.2,0.18 0.36,0.35 0.47,0.5c0.11,0.15 0.18,0.3 0.18,0.44c0.01,0.13 -0.02,0.25 -0.1,0.36c-0.13,0.17 -0.43,0.36 -0.91,0.57c-0.48,0.21 -1.05,0.48 -1.71,0.82c-0.65,0.33 -1.35,0.78 -2.1,1.34c-0.75,0.56 -1.45,1.29 -2.1,2.19c-0.61,0.85 -1.02,1.66 -1.25,2.44c-0.22,0.79 -0.29,1.52 -0.21,2.2c0.08,0.67 0.31,1.29 0.68,1.87c0.36,0.57 0.84,1.07 1.41,1.48c0.84,0.61 1.71,0.94 2.6,0.98c0.88,0.05 1.79,-0.08 2.73,-0.39c0.93,-0.31 1.89,-0.73 2.88,-1.28c0.98,-0.54 1.98,-1.1 3,-1.67c1.01,-0.57 2.05,-1.09 3.13,-1.58c1.07,-0.48 2.16,-0.81 3.27,-0.99c1.11,-0.18 2.25,-0.15 3.42,0.09c1.17,0.23 2.35,0.78 3.55,1.65c1.42,1.02 2.49,2.19 3.22,3.51c0.73,1.32 1.14,2.72 1.25,4.21c0.1,1.48 -0.11,2.99 -0.62,4.52c-0.52,1.54 -1.3,3.03 -2.34,4.48c-0.74,1.01 -1.5,1.89 -2.29,2.63c-0.8,0.74 -1.56,1.36 -2.3,1.86c-0.74,0.49 -1.41,0.88 -2,1.14c-0.6,0.27 -1.06,0.43 -1.37,0.47c-0.32,0.05 -0.65,0.01 -1,-0.11c-0.35,-0.13 -0.77,-0.36 -1.25,-0.71c-0.34,-0.25 -0.62,-0.47 -0.82,-0.66c-0.2,-0.19 -0.35,-0.37 -0.45,-0.54c-0.09,-0.16 -0.13,-0.31 -0.12,-0.44c0.01,-0.13 0.06,-0.26 0.15,-0.39c0.16,-0.22 0.51,-0.43 1.07,-0.63c0.55,-0.21 1.2,-0.51 1.96,-0.91c0.77,-0.4 1.6,-0.94 2.51,-1.62c0.9,-0.69 1.77,-1.6 2.61,-2.76c0.63,-0.87 1.08,-1.75 1.37,-2.64c0.29,-0.9 0.41,-1.76 0.36,-2.59c-0.05,-0.83 -0.29,-1.61 -0.71,-2.34c-0.42,-0.73 -1.03,-1.38 -1.82,-1.95c-0.86,-0.62 -1.73,-0.96 -2.62,-1.01c-0.89,-0.04 -1.79,0.08 -2.71,0.39c-0.92,0.31 -1.87,0.73 -2.84,1.28c-0.97,0.54 -1.97,1.09 -2.98,1.66c-1.02,0.57 -2.06,1.09 -3.12,1.55c-1.07,0.46 -2.16,0.78 -3.28,0.94c-1.11,0.17 -2.25,0.14 -3.42,-0.1c-1.17,-0.24 -2.36,-0.8 -3.59,-1.69c-1.27,-0.91 -2.23,-1.95 -2.88,-3.13c-0.66,-1.17 -1.03,-2.41 -1.11,-3.71c-0.08,-1.3 0.11,-2.64 0.58,-4.02c0.46,-1.38 1.17,-2.73 2.11,-4.04z" fill-rule="evenodd" id="svg_30"/>
    </g>
   </g>
   <g clip-path="url(#clip20)" filter="url(#fx3)" id="svg_38" transform="translate(502 159)">
    <g id="svg_39">
     <path d="m-236.79,-84.14l3.6,19.32l11.27,-6.4l-14.84,-12.94l-0.03,0.02zm-2.38,-4.55c0.54,-0.3 0.98,-0.54 1.35,-0.72c0.36,-0.17 0.67,-0.29 0.93,-0.34c0.25,-0.06 0.48,-0.06 0.66,0c0.19,0.06 0.37,0.16 0.54,0.31l27.98,23.93c0.34,0.29 0.58,0.55 0.72,0.77c0.13,0.22 0.17,0.43 0.1,0.62c-0.07,0.19 -0.24,0.39 -0.53,0.6c-0.29,0.21 -0.7,0.46 -1.22,0.76c-0.51,0.29 -0.93,0.51 -1.26,0.66c-0.32,0.15 -0.58,0.24 -0.77,0.28c-0.19,0.03 -0.35,0.01 -0.48,-0.04c-0.14,-0.06 -0.28,-0.15 -0.43,-0.26l-7.26,-6.31l-13.48,7.66l1.77,9.3c0.04,0.18 0.04,0.34 0.02,0.5c-0.02,0.15 -0.09,0.32 -0.21,0.48c-0.11,0.17 -0.31,0.35 -0.58,0.55c-0.27,0.2 -0.64,0.43 -1.11,0.7c-0.48,0.27 -0.89,0.47 -1.23,0.61c-0.33,0.13 -0.59,0.18 -0.78,0.13c-0.19,-0.04 -0.35,-0.18 -0.47,-0.41c-0.12,-0.23 -0.22,-0.57 -0.29,-1.01l-6.24,-36.29c-0.03,-0.22 -0.03,-0.42 0.01,-0.6c0.04,-0.18 0.15,-0.36 0.32,-0.54c0.17,-0.19 0.41,-0.39 0.72,-0.6c0.31,-0.21 0.72,-0.45 1.22,-0.74z" fill-rule="evenodd" id="svg_40"/>
    </g>
   </g>
   <text fill="#000000" fill-opacity="0" font-family="Arial,Arial_MSFontService,sans-serif" font-size="41.31" id="svg_42" x="258.65" y="105.68">A</text>
   <g clip-path="url(#clip21)" filter="url(#fx4)" id="svg_43" transform="translate(545 133)">
    <g id="svg_44">
     <path d="m-243.04,-81.24l2.93,-0.82c0.61,-0.16 1.15,-0.26 1.63,-0.27c0.48,-0.01 0.92,0.05 1.33,0.2c0.4,0.14 0.77,0.37 1.1,0.68c0.33,0.31 0.65,0.69 0.95,1.14l17.51,23.14l0.14,-0.03l3.47,-28.9c0.05,-0.61 0.15,-1.15 0.28,-1.6c0.14,-0.46 0.32,-0.85 0.55,-1.16c0.23,-0.31 0.5,-0.57 0.83,-0.77c0.33,-0.2 0.73,-0.37 1.2,-0.5l3.07,-0.85c0.29,-0.08 0.56,-0.11 0.84,-0.1c0.28,0.01 0.53,0.08 0.76,0.21c0.23,0.12 0.43,0.3 0.62,0.54c0.19,0.24 0.34,0.55 0.44,0.94l9.2,33.03c0.04,0.14 0.04,0.28 -0.01,0.42c-0.04,0.13 -0.15,0.25 -0.32,0.37c-0.18,0.12 -0.4,0.24 -0.69,0.37c-0.28,0.13 -0.66,0.26 -1.14,0.39c-0.43,0.12 -0.82,0.21 -1.14,0.25c-0.33,0.04 -0.59,0.05 -0.79,0.04c-0.2,-0.02 -0.36,-0.07 -0.46,-0.16c-0.11,-0.09 -0.18,-0.21 -0.23,-0.35l-8.7,-31.28l-0.06,0.01l-3.91,34.94c-0.02,0.15 -0.06,0.28 -0.14,0.4c-0.08,0.12 -0.2,0.24 -0.38,0.36c-0.18,0.12 -0.39,0.23 -0.65,0.33c-0.26,0.11 -0.58,0.21 -0.95,0.31c-0.39,0.11 -0.73,0.18 -1.01,0.22c-0.29,0.04 -0.54,0.06 -0.74,0.04c-0.2,-0.01 -0.37,-0.05 -0.5,-0.11c-0.12,-0.07 -0.22,-0.15 -0.29,-0.25l-20.85,-28.05l-0.02,0.01l8.7,31.28c0.04,0.15 0.04,0.29 0,0.42c-0.05,0.13 -0.16,0.26 -0.33,0.37c-0.17,0.12 -0.4,0.25 -0.7,0.38c-0.29,0.13 -0.67,0.26 -1.15,0.39c-0.46,0.13 -0.84,0.21 -1.16,0.25c-0.32,0.04 -0.58,0.05 -0.78,0.04c-0.2,-0.02 -0.34,-0.07 -0.44,-0.16c-0.1,-0.09 -0.17,-0.21 -0.21,-0.36l-9.19,-33.03c-0.22,-0.78 -0.17,-1.39 0.15,-1.84c0.32,-0.44 0.74,-0.74 1.24,-0.88z" fill-rule="evenodd" id="svg_45"/>
    </g>
   </g>
   <text fill="#000000" fill-opacity="0" font-family="Arial,Arial_MSFontService,sans-serif" font-size="46.12" id="svg_47" x="298.55" y="81.6">M</text>
   <g clip-path="url(#clip22)" filter="url(#fx5)" id="svg_48" transform="matrix(1 0 0 1 0 0)">
    <g id="svg_49">
     <path d="m373.42,42.64l0.02,14.95l4.47,0c1.49,0 2.74,-0.2 3.73,-0.58c0.99,-0.39 1.82,-0.92 2.49,-1.6c0.67,-0.69 1.18,-1.5 1.52,-2.46c0.35,-0.95 0.52,-1.98 0.52,-3.09c-0.01,-1.52 -0.29,-2.79 -0.86,-3.8c-0.57,-1.02 -1.27,-1.78 -2.1,-2.28c-0.84,-0.5 -1.7,-0.81 -2.6,-0.95c-0.89,-0.13 -1.76,-0.2 -2.6,-0.19l-4.59,0zm-3,-4.09l7.98,-0.01c0.81,0 1.58,0.04 2.32,0.1c0.74,0.07 1.62,0.21 2.63,0.43c1,0.22 2.03,0.63 3.08,1.24c1.05,0.6 1.94,1.34 2.67,2.23c0.73,0.88 1.29,1.9 1.69,3.06c0.39,1.16 0.59,2.45 0.59,3.85c0,1.86 -0.3,3.54 -0.92,5.04c-0.61,1.5 -1.49,2.78 -2.63,3.84c-1.14,1.05 -2.54,1.87 -4.2,2.45c-1.66,0.58 -3.64,0.87 -5.95,0.87l-4.23,0l0.01,13.43c0,0.15 -0.04,0.29 -0.13,0.4c-0.08,0.12 -0.22,0.21 -0.4,0.28c-0.18,0.06 -0.43,0.12 -0.75,0.17c-0.32,0.05 -0.72,0.07 -1.2,0.07c-0.48,0 -0.87,-0.02 -1.19,-0.07c-0.32,-0.04 -0.57,-0.1 -0.77,-0.17c-0.19,-0.07 -0.32,-0.16 -0.4,-0.27c-0.08,-0.12 -0.11,-0.25 -0.11,-0.41l-0.04,-34.39c0,-0.77 0.2,-1.32 0.6,-1.65c0.4,-0.32 0.85,-0.49 1.35,-0.49z" fill-rule="evenodd" id="svg_50"/>
    </g>
   </g>
   <g clip-path="url(#clip23)" filter="url(#fx6)" id="svg_53" transform="translate(659 155)">
    <g id="svg_54">
     <path d="m-247.99,-92.76l11.71,2.81c0.15,0.04 0.28,0.1 0.39,0.18c0.1,0.09 0.18,0.22 0.23,0.4c0.04,0.18 0.06,0.39 0.05,0.65c-0.01,0.25 -0.06,0.56 -0.15,0.91c-0.17,0.73 -0.38,1.21 -0.61,1.45c-0.24,0.24 -0.52,0.32 -0.83,0.25l-11.71,-2.82c-0.34,-0.08 -0.55,-0.28 -0.65,-0.61c-0.1,-0.33 -0.07,-0.85 0.1,-1.56c0.18,-0.71 0.38,-1.19 0.61,-1.43c0.24,-0.24 0.52,-0.31 0.86,-0.23z" fill-rule="evenodd" id="svg_55"/>
    </g>
   </g>
   <path d="m409.13,61.56l11.71,2.82c0.15,0.03 0.27,0.09 0.38,0.18c0.11,0.09 0.19,0.22 0.23,0.4c0.05,0.17 0.06,0.39 0.05,0.64c-0.01,0.26 -0.06,0.56 -0.14,0.92c-0.18,0.73 -0.38,1.21 -0.62,1.45c-0.23,0.24 -0.51,0.32 -0.83,0.25l-11.7,-2.82c-0.34,-0.08 -0.56,-0.28 -0.66,-0.61c-0.1,-0.33 -0.06,-0.85 0.11,-1.56c0.17,-0.71 0.37,-1.19 0.61,-1.43c0.23,-0.24 0.52,-0.32 0.86,-0.24z" fill-rule="evenodd" id="svg_56"/>
   <text fill="#000000" fill-opacity="0" font-family="Arial,Arial_MSFontService,sans-serif" font-size="6.71" id="svg_57" x="407.5" y="67.41">-</text>
   <path d="m281.5,194l-8.27,2.94l0,-5.88l8.27,2.94zm-6.01,-14.5l-3.76,7.94l-4.16,-4.17l7.92,-3.77zm-14.49,-6l2.94,8.27l-5.88,0l2.94,-8.27zm-14.5,6l7.94,3.77l-4.17,4.17l-3.77,-7.94zm-6,14.5l8.27,-2.94l0,5.88l-8.27,-2.94zm6,14.49l3.77,-7.92l4.17,4.16l-7.94,3.76zm14.5,6.01l-2.94,-8.27l5.88,0l-2.94,8.27zm14.49,-6.01l-7.92,-3.76l4.16,-4.16l3.76,7.92zm-24.74,-14.49c0,-5.66 4.59,-10.25 10.25,-10.25c5.66,0 10.25,4.59 10.25,10.25c0,5.66 -4.59,10.25 -10.25,10.25c-5.66,0 -10.25,-4.59 -10.25,-10.25z" fill="#4472C4" fill-rule="evenodd" id="svg_58" stroke="#172C51" stroke-miterlimit="8" stroke-width="1.33"/>
   <path d="m338.5,155l-8.27,2.94l0,-5.88l8.27,2.94zm-6.01,-14.5l-3.76,7.94l-4.16,-4.17l7.92,-3.77zm-14.49,-6l2.94,8.27l-5.88,0l2.94,-8.27zm-14.5,6l7.93,3.77l-4.16,4.17l-3.77,-7.94zm-6,14.5l8.27,-2.94l0,5.88l-8.27,-2.94zm6,14.49l3.77,-7.92l4.16,4.16l-7.93,3.76zm14.5,6.01l-2.94,-8.27l5.88,0l-2.94,8.27zm14.49,-6.01l-7.92,-3.76l4.16,-4.16l3.76,7.92zm-24.74,-14.49c0,-5.66 4.59,-10.25 10.25,-10.25c5.66,0 10.25,4.59 10.25,10.25c0,5.66 -4.59,10.25 -10.25,10.25c-5.66,0 -10.25,-4.59 -10.25,-10.25z" fill="#4472C4" fill-rule="evenodd" id="svg_59" stroke="#172C51" stroke-miterlimit="8" stroke-width="1.33"/>
   <path d="m404.5,134l-8.07,2.94l0,-5.88l8.07,2.94zm-5.86,-14.5l-3.68,7.94l-4.06,-4.17l7.74,-3.77zm-14.14,-6l2.87,8.27l-5.74,0l2.87,-8.27zm-14.14,6l7.74,3.77l-4.06,4.17l-3.68,-7.94zm-5.86,14.5l8.07,-2.94l0,5.88l-8.07,-2.94zm5.86,14.49l3.68,-7.92l4.06,4.16l-7.74,3.76zm14.14,6.01l-2.87,-8.27l5.74,0l-2.87,8.27zm14.14,-6.01l-7.74,-3.76l4.06,-4.16l3.68,7.92zm-24.14,-14.49c0,-5.66 4.48,-10.25 10,-10.25c5.52,0 10,4.59 10,10.25c0,5.66 -4.48,10.25 -10,10.25c-5.52,0 -10,-4.59 -10,-10.25z" fill="#4472C4" fill-rule="evenodd" id="svg_60" stroke="#172C51" stroke-miterlimit="8" stroke-width="1.33"/>
   <path d="m478.5,334.5l-8.27,2.87l0,-5.74l8.27,2.87zm-6.01,-14.14l-3.76,7.74l-4.16,-4.06l7.92,-3.68zm-14.49,-5.86l2.94,8.07l-5.88,0l2.94,-8.07zm-14.5,5.86l7.93,3.68l-4.16,4.06l-3.77,-7.74zm-6,14.14l8.27,-2.87l0,5.74l-8.27,-2.87zm6,14.14l3.77,-7.74l4.16,4.06l-7.93,3.68zm14.5,5.86l-2.94,-8.07l5.88,0l-2.94,8.07zm14.49,-5.86l-7.92,-3.68l4.16,-4.06l3.76,7.74zm-24.74,-14.14c0,-5.52 4.59,-10 10.25,-10c5.66,0 10.25,4.48 10.25,10c0,5.52 -4.59,10 -10.25,10c-5.66,0 -10.25,-4.48 -10.25,-10z" fill="#4472C4" fill-rule="evenodd" id="svg_61" stroke="#172C51" stroke-miterlimit="8" stroke-width="1.33"/>
   <path d="m410.5,375l-8.27,2.94l0,-5.88l8.27,2.94zm-6.01,-14.5l-3.76,7.94l-4.16,-4.17l7.92,-3.77zm-14.49,-6l2.94,8.27l-5.88,0l2.94,-8.27zm-14.5,6l7.93,3.77l-4.16,4.17l-3.77,-7.94zm-6,14.5l8.27,-2.94l0,5.88l-8.27,-2.94zm6,14.49l3.77,-7.92l4.16,4.16l-7.93,3.76zm14.5,6.01l-2.94,-8.27l5.88,0l-2.94,8.27zm14.49,-6.01l-7.92,-3.76l4.16,-4.16l3.76,7.92zm-24.74,-14.49c0,-5.66 4.59,-10.25 10.25,-10.25c5.66,0 10.25,4.59 10.25,10.25c0,5.66 -4.59,10.25 -10.25,10.25c-5.66,0 -10.25,-4.59 -10.25,-10.25z" fill="#4472C4" fill-rule="evenodd" id="svg_62" stroke="#172C51" stroke-miterlimit="8" stroke-width="1.33"/>
   <g clip-path="url(#clip24)" filter="url(#fx7)" id="svg_63" transform="translate(576 548)">
    <g id="svg_64">
     <path d="m-247.89,-92.9l11.54,3.43c0.15,0.04 0.28,0.11 0.38,0.2c0.1,0.09 0.17,0.23 0.21,0.41c0.03,0.18 0.04,0.4 0.01,0.65c-0.02,0.25 -0.09,0.56 -0.19,0.91c-0.21,0.71 -0.44,1.19 -0.69,1.41c-0.25,0.23 -0.53,0.3 -0.84,0.2l-11.54,-3.43c-0.34,-0.1 -0.54,-0.31 -0.62,-0.65c-0.08,-0.33 -0.02,-0.85 0.19,-1.55c0.21,-0.7 0.43,-1.16 0.68,-1.39c0.25,-0.23 0.54,-0.29 0.87,-0.19z" fill-rule="evenodd" id="svg_65"/>
    </g>
   </g>
   <path d="m326.23,454.43l11.54,3.43c0.15,0.04 0.27,0.11 0.37,0.2c0.11,0.09 0.18,0.23 0.21,0.41c0.04,0.18 0.05,0.4 0.02,0.65c-0.02,0.25 -0.09,0.55 -0.19,0.9c-0.22,0.72 -0.45,1.19 -0.69,1.42c-0.25,0.23 -0.53,0.3 -0.85,0.2l-11.54,-3.43c-0.33,-0.1 -0.54,-0.32 -0.62,-0.65c-0.08,-0.34 -0.01,-0.85 0.19,-1.55c0.21,-0.7 0.44,-1.16 0.69,-1.39c0.25,-0.23 0.53,-0.29 0.87,-0.19z" fill-rule="evenodd" id="svg_66"/>
   <text fill="#000000" fill-opacity="0" font-family="Arial,Arial_MSFontService,sans-serif" font-size="7.3" id="svg_67" x="324.45" y="460.77">-</text>
   <g clip-path="url(#clip25)" filter="url(#fx8)" id="svg_68" transform="matrix(1 0 0 1 0 0)">
    <g id="svg_69">
     <path d="m369.14,441.02c0.82,0.04 1.65,0.15 2.48,0.33c0.82,0.19 1.6,0.41 2.33,0.69c0.73,0.27 1.37,0.57 1.93,0.89c0.57,0.33 0.93,0.58 1.11,0.78c0.17,0.19 0.28,0.34 0.34,0.44c0.05,0.11 0.09,0.25 0.12,0.41c0.03,0.17 0.05,0.37 0.06,0.6c0.01,0.23 0.01,0.53 -0.01,0.89c-0.02,0.35 -0.04,0.65 -0.09,0.92c-0.04,0.27 -0.09,0.49 -0.16,0.67c-0.06,0.18 -0.15,0.31 -0.26,0.39c-0.11,0.08 -0.23,0.12 -0.36,0.11c-0.22,-0.01 -0.54,-0.16 -0.98,-0.44c-0.44,-0.29 -0.98,-0.62 -1.61,-0.99c-0.64,-0.36 -1.4,-0.7 -2.28,-1.02c-0.88,-0.32 -1.87,-0.51 -2.99,-0.56c-1.03,-0.05 -1.94,0.05 -2.72,0.29c-0.78,0.25 -1.43,0.59 -1.95,1.03c-0.52,0.43 -0.92,0.96 -1.2,1.58c-0.28,0.63 -0.43,1.29 -0.46,2c-0.05,1.04 0.15,1.94 0.59,2.71c0.45,0.77 1.06,1.46 1.83,2.07c0.77,0.62 1.65,1.19 2.64,1.71c1,0.53 2.01,1.06 3.04,1.6c1.04,0.54 2.05,1.12 3.04,1.75c0.99,0.63 1.86,1.37 2.62,2.2c0.76,0.83 1.36,1.8 1.8,2.91c0.44,1.1 0.63,2.4 0.56,3.87c-0.08,1.75 -0.47,3.29 -1.18,4.62c-0.7,1.33 -1.65,2.45 -2.83,3.35c-1.19,0.89 -2.56,1.55 -4.13,1.95c-1.57,0.41 -3.24,0.58 -5.03,0.5c-1.24,-0.06 -2.39,-0.22 -3.45,-0.48c-1.05,-0.26 -1.99,-0.56 -2.81,-0.91c-0.82,-0.34 -1.51,-0.69 -2.06,-1.04c-0.55,-0.36 -0.93,-0.65 -1.14,-0.89c-0.21,-0.24 -0.36,-0.54 -0.45,-0.9c-0.09,-0.36 -0.12,-0.84 -0.09,-1.43c0.02,-0.43 0.05,-0.78 0.1,-1.05c0.05,-0.28 0.12,-0.5 0.21,-0.67c0.08,-0.17 0.18,-0.28 0.3,-0.35c0.12,-0.06 0.25,-0.09 0.41,-0.08c0.27,0.01 0.64,0.19 1.11,0.54c0.48,0.35 1.09,0.73 1.84,1.15c0.75,0.42 1.66,0.82 2.73,1.21c1.06,0.39 2.31,0.61 3.73,0.68c1.07,0.04 2.06,-0.05 2.97,-0.3c0.9,-0.25 1.69,-0.62 2.36,-1.12c0.66,-0.5 1.19,-1.12 1.57,-1.87c0.38,-0.75 0.59,-1.62 0.63,-2.6c0.05,-1.05 -0.15,-1.97 -0.59,-2.74c-0.45,-0.77 -1.05,-1.45 -1.81,-2.05c-0.76,-0.61 -1.63,-1.17 -2.62,-1.68c-0.99,-0.52 -1.99,-1.05 -3.03,-1.58c-1.03,-0.54 -2.03,-1.13 -3,-1.77c-0.97,-0.64 -1.83,-1.38 -2.58,-2.22c-0.75,-0.85 -1.35,-1.82 -1.79,-2.93c-0.44,-1.1 -0.62,-2.41 -0.55,-3.93c0.07,-1.55 0.42,-2.93 1.04,-4.12c0.62,-1.19 1.45,-2.18 2.5,-2.96c1.04,-0.77 2.27,-1.35 3.68,-1.72c1.41,-0.36 2.92,-0.51 4.54,-0.44z" fill-rule="evenodd" id="svg_70"/>
    </g>
   </g>
   <g clip-path="url(#clip26)" filter="url(#fx9)" id="svg_73" transform="translate(640 527)">
    <g id="svg_74">
     <path d="m-249.66,-85.62l25.52,-4.59c0.15,-0.03 0.29,-0.01 0.43,0.04c0.14,0.06 0.26,0.16 0.38,0.31c0.11,0.16 0.21,0.37 0.3,0.64c0.09,0.26 0.16,0.58 0.23,0.94c0.06,0.36 0.1,0.67 0.11,0.94c0.01,0.27 -0.01,0.5 -0.07,0.67c-0.06,0.18 -0.14,0.32 -0.25,0.41c-0.11,0.1 -0.24,0.16 -0.39,0.19l-10.32,1.86l5.72,31.81c0.03,0.15 0.02,0.29 -0.04,0.42c-0.06,0.13 -0.17,0.24 -0.35,0.34c-0.18,0.1 -0.42,0.2 -0.72,0.3c-0.3,0.11 -0.69,0.2 -1.16,0.29c-0.46,0.08 -0.85,0.12 -1.18,0.13c-0.33,0.02 -0.59,0 -0.79,-0.03c-0.21,-0.03 -0.35,-0.1 -0.45,-0.2c-0.1,-0.1 -0.16,-0.22 -0.18,-0.37l-5.73,-31.82l-10.32,1.86c-0.15,0.03 -0.29,0.01 -0.43,-0.04c-0.13,-0.05 -0.25,-0.15 -0.36,-0.3c-0.1,-0.15 -0.2,-0.35 -0.3,-0.6c-0.09,-0.26 -0.17,-0.57 -0.24,-0.93c-0.06,-0.36 -0.1,-0.68 -0.1,-0.96c0,-0.28 0.02,-0.52 0.07,-0.7c0.04,-0.18 0.12,-0.32 0.23,-0.42c0.11,-0.1 0.24,-0.16 0.39,-0.19z" fill-rule="evenodd" id="svg_75"/>
    </g>
   </g>
   <g clip-path="url(#clip27)" filter="url(#fx10)" id="svg_78" transform="translate(675 519)">
    <g id="svg_79">
     <path d="m-233.13,-86.12l1.08,19.64l12,-4.9l-13.05,-14.75l-0.03,0.01zm-1.77,-4.81c0.56,-0.23 1.04,-0.41 1.43,-0.54c0.38,-0.12 0.7,-0.2 0.96,-0.22c0.26,-0.02 0.48,0.01 0.66,0.09c0.18,0.08 0.35,0.21 0.5,0.37l24.66,27.34c0.3,0.33 0.51,0.61 0.61,0.85c0.11,0.24 0.12,0.45 0.03,0.63c-0.1,0.18 -0.3,0.36 -0.61,0.53c-0.32,0.17 -0.75,0.37 -1.3,0.59c-0.55,0.23 -1,0.39 -1.34,0.5c-0.34,0.11 -0.61,0.16 -0.8,0.17c-0.19,0.01 -0.35,-0.03 -0.48,-0.1c-0.12,-0.07 -0.25,-0.18 -0.39,-0.31l-6.39,-7.19l-14.35,5.86l0.56,9.45c0.01,0.18 0,0.35 -0.04,0.5c-0.04,0.15 -0.13,0.3 -0.27,0.45c-0.14,0.15 -0.35,0.3 -0.65,0.47c-0.3,0.16 -0.69,0.34 -1.19,0.54c-0.52,0.21 -0.95,0.36 -1.29,0.45c-0.35,0.09 -0.62,0.1 -0.8,0.03c-0.19,-0.07 -0.32,-0.22 -0.41,-0.47c-0.09,-0.24 -0.14,-0.59 -0.16,-1.04l-1.51,-36.78c-0.01,-0.23 0.02,-0.42 0.08,-0.59c0.07,-0.18 0.2,-0.34 0.39,-0.51c0.19,-0.16 0.46,-0.32 0.79,-0.49c0.34,-0.17 0.77,-0.36 1.31,-0.58z" fill-rule="evenodd" id="svg_80"/>
    </g>
   </g>
   <g clip-path="url(#clip28)" filter="url(#fx11)" id="svg_83" transform="translate(714 487)">
    <g id="svg_84">
     <path d="m-246.13,-71.68l2.44,-1.81c0.5,-0.37 0.97,-0.65 1.42,-0.84c0.44,-0.19 0.88,-0.28 1.31,-0.29c0.43,-0.01 0.85,0.07 1.27,0.24c0.42,0.16 0.85,0.4 1.3,0.72l24.66,15.3l0.11,-0.08l-7.14,-28.22c-0.18,-0.59 -0.28,-1.12 -0.32,-1.59c-0.03,-0.48 0,-0.9 0.1,-1.28c0.1,-0.37 0.26,-0.71 0.5,-1.01c0.23,-0.31 0.54,-0.61 0.94,-0.9l2.56,-1.9c0.23,-0.18 0.48,-0.31 0.74,-0.4c0.27,-0.08 0.53,-0.11 0.78,-0.07c0.26,0.03 0.52,0.13 0.78,0.28c0.26,0.15 0.51,0.39 0.75,0.72l20.45,27.51c0.09,0.12 0.14,0.26 0.15,0.4c0,0.13 -0.05,0.29 -0.17,0.46c-0.12,0.17 -0.29,0.37 -0.51,0.59c-0.21,0.22 -0.52,0.48 -0.92,0.78c-0.36,0.27 -0.69,0.48 -0.98,0.64c-0.29,0.15 -0.53,0.26 -0.72,0.32c-0.19,0.06 -0.36,0.06 -0.49,0.02c-0.13,-0.05 -0.24,-0.13 -0.33,-0.25l-19.37,-26.06l-0.05,0.03l8.91,34.01c0.04,0.15 0.04,0.29 0.01,0.43c-0.03,0.14 -0.1,0.29 -0.22,0.47c-0.12,0.17 -0.29,0.35 -0.49,0.54c-0.21,0.19 -0.47,0.4 -0.78,0.63c-0.32,0.24 -0.61,0.43 -0.86,0.57c-0.26,0.14 -0.48,0.25 -0.68,0.31c-0.19,0.06 -0.36,0.08 -0.5,0.07c-0.14,-0.02 -0.26,-0.06 -0.36,-0.13l-29.54,-18.68l-0.02,0.02l19.37,26.05c0.09,0.13 0.14,0.26 0.14,0.4c0.01,0.14 -0.05,0.29 -0.17,0.47c-0.12,0.17 -0.29,0.37 -0.51,0.6c-0.23,0.22 -0.54,0.48 -0.94,0.78c-0.38,0.28 -0.71,0.5 -0.99,0.65c-0.29,0.15 -0.52,0.25 -0.71,0.31c-0.19,0.06 -0.35,0.06 -0.48,0.01c-0.12,-0.05 -0.23,-0.14 -0.32,-0.26l-20.45,-27.51c-0.48,-0.65 -0.65,-1.24 -0.51,-1.78c0.13,-0.53 0.41,-0.95 0.84,-1.27z" fill-rule="evenodd" id="svg_85"/>
    </g>
   </g>
   <text fill="#000000" fill-opacity="0" font-family="Arial,Arial_MSFontService,sans-serif" font-size="53.01" id="svg_87" x="465.1" y="438.88">M</text>
   <g clip-path="url(#clip29)" filter="url(#fx12)" id="svg_88" transform="translate(757 460)">
    <g id="svg_89">
     <path d="m-242.01,-80.62l11.91,9.03l2.7,-3.55c0.9,-1.2 1.5,-2.3 1.79,-3.32c0.29,-1.02 0.37,-2.01 0.23,-2.96c-0.13,-0.94 -0.47,-1.84 -1.02,-2.69c-0.55,-0.85 -1.27,-1.61 -2.16,-2.29c-1.21,-0.91 -2.39,-1.46 -3.54,-1.62c-1.15,-0.16 -2.18,-0.06 -3.08,0.3c-0.91,0.36 -1.68,0.86 -2.33,1.49c-0.65,0.63 -1.22,1.28 -1.74,1.96l-2.76,3.65zm-5.07,-0.09l4.82,-6.36c0.49,-0.64 0.98,-1.24 1.48,-1.78c0.5,-0.55 1.14,-1.16 1.93,-1.83c0.79,-0.67 1.74,-1.24 2.85,-1.71c1.11,-0.47 2.24,-0.72 3.39,-0.77c1.14,-0.05 2.3,0.12 3.46,0.51c1.17,0.39 2.31,1.01 3.42,1.85c1.49,1.13 2.64,2.39 3.46,3.79c0.82,1.39 1.31,2.86 1.46,4.41c0.15,1.55 -0.04,3.16 -0.59,4.83c-0.54,1.67 -1.51,3.43 -2.91,5.26l-2.56,3.38l10.7,8.11c0.12,0.1 0.2,0.21 0.24,0.35c0.04,0.14 0.03,0.3 -0.02,0.49c-0.06,0.18 -0.17,0.42 -0.32,0.7c-0.15,0.28 -0.37,0.61 -0.66,0.99c-0.29,0.39 -0.55,0.69 -0.78,0.91c-0.23,0.23 -0.43,0.39 -0.6,0.51c-0.17,0.11 -0.33,0.16 -0.47,0.15c-0.13,-0.01 -0.26,-0.06 -0.39,-0.15l-27.4,-20.79c-0.61,-0.46 -0.93,-0.96 -0.94,-1.48c-0.02,-0.51 0.12,-0.97 0.43,-1.37z" fill-rule="evenodd" id="svg_90"/>
    </g>
   </g>
   <g clip-path="url(#clip30)" filter="url(#fx13)" id="svg_93" transform="translate(794 444)">
    <g id="svg_94">
     <path d="m-246.93,-83.92l4.64,-11.11c0.06,-0.15 0.14,-0.26 0.24,-0.36c0.1,-0.09 0.25,-0.14 0.43,-0.16c0.18,-0.02 0.4,0 0.65,0.05c0.25,0.05 0.54,0.15 0.88,0.29c0.69,0.29 1.13,0.57 1.33,0.84c0.2,0.27 0.24,0.56 0.11,0.86l-4.64,11.11c-0.13,0.32 -0.37,0.5 -0.71,0.54c-0.34,0.05 -0.85,-0.07 -1.52,-0.35c-0.68,-0.28 -1.11,-0.56 -1.31,-0.83c-0.2,-0.27 -0.23,-0.56 -0.1,-0.88z" fill-rule="evenodd" id="svg_95"/>
    </g>
   </g>
   <path d="m545.18,359.41l4.65,-11.11c0.06,-0.15 0.14,-0.26 0.24,-0.36c0.1,-0.09 0.24,-0.14 0.43,-0.16c0.18,-0.02 0.4,0 0.65,0.05c0.24,0.05 0.54,0.15 0.87,0.29c0.7,0.29 1.14,0.57 1.34,0.84c0.2,0.27 0.24,0.55 0.11,0.86l-4.64,11.11c-0.14,0.32 -0.37,0.5 -0.71,0.54c-0.35,0.05 -0.85,-0.07 -1.53,-0.35c-0.67,-0.28 -1.11,-0.56 -1.31,-0.83c-0.2,-0.27 -0.23,-0.56 -0.1,-0.88z" fill-rule="evenodd" id="svg_96"/>
   <text fill="#000000" fill-opacity="0" font-family="Arial,Arial_MSFontService,sans-serif" font-size="13.71" id="svg_97" x="545.11" y="359.77">-</text>
   <text fill="#FFFFFF" font-family="Arial Black,Arial Black_MSFontService,sans-serif" font-size="64" font-weight="900" id="svg_98" transform="matrix(1 0 0 1 0 0) matrix(0.901581 -0.432611 0.432611 0.901581 466.491 460)" x="-143.52" y="-168.02">STAMPS</text>
   <text fill="#000000" font-family="Arial,Arial_MSFontService,sans-serif" font-size="37.4" font-weight="bold" id="svg_102" text-anchor="middle" transform="matrix(1 0 0 1 0 0) rotate(9.37197 273.5 84.5) matrix(0.990614 -0.901933 0.838212 1.06592 74.154 120.812)" x="134.07" xml:space="preserve" y="92.36">I</text>
   <text fill="#000000" font-family="Arial,Arial_MSFontService,sans-serif" font-size="37.4" font-weight="bold" id="svg_103" text-anchor="middle" transform="rotate(1.54806 316.5 67.5) matrix(1.16615 -0.659467 0.580617 1.22543 68.194 65.2028)" x="167.2" xml:space="preserve" y="104.84">C</text>
   <text fill="#000000" font-family="Arial,Arial_MSFontService,sans-serif" font-size="37.4" font-weight="bold" id="svg_106" text-anchor="middle" transform="rotate(19.7594 426.5 450.5) matrix(0.990614 -0.901933 0.838212 1.06592 74.154 320.812)" x="147.28" xml:space="preserve" y="259.28">E</text>
   <text fill="#000000" font-family="Arial,Arial_MSFontService,sans-serif" font-size="37.4" font-weight="bold" id="svg_107" text-anchor="middle" transform="rotate(8.75039 477.718 426.301) matrix(0.990614 -0.901933 0.838212 1.06592 74.154 340.812)" x="197.64" xml:space="preserve" y="260.61">R</text>
   <text fill="#000000" font-family="Arial,Arial_MSFontService,sans-serif" font-size="37.4" font-weight="bold" id="svg_108" text-anchor="middle" transform="rotate(-7.95748 519.5 390.5) matrix(0.990614 -0.901933 0.838212 1.06592 14.1538 308.812)" x="259.5" xml:space="preserve" y="309.19">E</text>
  </g>
 </g>
</svg>