<svg width="740" height="518" xmlns="http://www.w3.org/2000/svg" xmlns:xlink="http://www.w3.org/1999/xlink" overflow="hidden"><defs><filter id="fx0" x="-10%" y="-10%" width="120%" height="120%" filterUnits="userSpaceOnUse" primitiveUnits="userSpaceOnUse"><feComponentTransfer color-interpolation-filters="sRGB"><feFuncR type="discrete" tableValues="0 0"/><feFuncG type="discrete" tableValues="0 0"/><feFuncB type="discrete" tableValues="0 0"/><feFuncA type="linear" slope="0.4" intercept="0"/></feComponentTransfer><feGaussianBlur stdDeviation="1.33333 1.33333"/></filter><filter id="fx1" x="-10%" y="-10%" width="120%" height="120%" filterUnits="userSpaceOnUse" primitiveUnits="userSpaceOnUse"><feComponentTransfer color-interpolation-filters="sRGB"><feFuncR type="discrete" tableValues="0 0"/><feFuncG type="discrete" tableValues="0 0"/><feFuncB type="discrete" tableValues="0 0"/><feFuncA type="linear" slope="0.4" intercept="0"/></feComponentTransfer><feGaussianBlur stdDeviation="1.33333 1.33333"/></filter><filter id="fx2" x="-10%" y="-10%" width="120%" height="120%" filterUnits="userSpaceOnUse" primitiveUnits="userSpaceOnUse"><feComponentTransfer color-interpolation-filters="sRGB"><feFuncR type="discrete" tableValues="0 0"/><feFuncG type="discrete" tableValues="0 0"/><feFuncB type="discrete" tableValues="0 0"/><feFuncA type="linear" slope="0.4" intercept="0"/></feComponentTransfer><feGaussianBlur stdDeviation="1.33333 1.33333"/></filter><filter id="fx3" x="-10%" y="-10%" width="120%" height="120%" filterUnits="userSpaceOnUse" primitiveUnits="userSpaceOnUse"><feComponentTransfer color-interpolation-filters="sRGB"><feFuncR type="discrete" tableValues="0 0"/><feFuncG type="discrete" tableValues="0 0"/><feFuncB type="discrete" tableValues="0 0"/><feFuncA type="linear" slope="0.4" intercept="0"/></feComponentTransfer><feGaussianBlur stdDeviation="1.33333 1.33333"/></filter><filter id="fx4" x="-10%" y="-10%" width="120%" height="120%" filterUnits="userSpaceOnUse" primitiveUnits="userSpaceOnUse"><feComponentTransfer color-interpolation-filters="sRGB"><feFuncR type="discrete" tableValues="0 0"/><feFuncG type="discrete" tableValues="0 0"/><feFuncB type="discrete" tableValues="0 0"/><feFuncA type="linear" slope="0.4" intercept="0"/></feComponentTransfer><feGaussianBlur stdDeviation="1.33333 1.33333"/></filter><filter id="fx5" x="-10%" y="-10%" width="120%" height="120%" filterUnits="userSpaceOnUse" primitiveUnits="userSpaceOnUse"><feComponentTransfer color-interpolation-filters="sRGB"><feFuncR type="discrete" tableValues="0 0"/><feFuncG type="discrete" tableValues="0 0"/><feFuncB type="discrete" tableValues="0 0"/><feFuncA type="linear" slope="0.4" intercept="0"/></feComponentTransfer><feGaussianBlur stdDeviation="1.33333 1.33333"/></filter><filter id="fx6" x="-10%" y="-10%" width="120%" height="120%" filterUnits="userSpaceOnUse" primitiveUnits="userSpaceOnUse"><feComponentTransfer color-interpolation-filters="sRGB"><feFuncR type="discrete" tableValues="0 0"/><feFuncG type="discrete" tableValues="0 0"/><feFuncB type="discrete" tableValues="0 0"/><feFuncA type="linear" slope="0.4" intercept="0"/></feComponentTransfer><feGaussianBlur stdDeviation="1.33333 1.33333"/></filter><filter id="fx7" x="-10%" y="-10%" width="120%" height="120%" filterUnits="userSpaceOnUse" primitiveUnits="userSpaceOnUse"><feComponentTransfer color-interpolation-filters="sRGB"><feFuncR type="discrete" tableValues="0 0"/><feFuncG type="discrete" tableValues="0 0"/><feFuncB type="discrete" tableValues="0 0"/><feFuncA type="linear" slope="0.4" intercept="0"/></feComponentTransfer><feGaussianBlur stdDeviation="1.33333 1.33333"/></filter><filter id="fx8" x="-10%" y="-10%" width="120%" height="120%" filterUnits="userSpaceOnUse" primitiveUnits="userSpaceOnUse"><feComponentTransfer color-interpolation-filters="sRGB"><feFuncR type="discrete" tableValues="0 0"/><feFuncG type="discrete" tableValues="0 0"/><feFuncB type="discrete" tableValues="0 0"/><feFuncA type="linear" slope="0.4" intercept="0"/></feComponentTransfer><feGaussianBlur stdDeviation="1.33333 1.33333"/></filter><filter id="fx9" x="-10%" y="-10%" width="120%" height="120%" filterUnits="userSpaceOnUse" primitiveUnits="userSpaceOnUse"><feComponentTransfer color-interpolation-filters="sRGB"><feFuncR type="discrete" tableValues="0 0"/><feFuncG type="discrete" tableValues="0 0"/><feFuncB type="discrete" tableValues="0 0"/><feFuncA type="linear" slope="0.4" intercept="0"/></feComponentTransfer><feGaussianBlur stdDeviation="1.33333 1.33333"/></filter><filter id="fx10" x="-10%" y="-10%" width="120%" height="120%" filterUnits="userSpaceOnUse" primitiveUnits="userSpaceOnUse"><feComponentTransfer color-interpolation-filters="sRGB"><feFuncR type="discrete" tableValues="0 0"/><feFuncG type="discrete" tableValues="0 0"/><feFuncB type="discrete" tableValues="0 0"/><feFuncA type="linear" slope="0.4" intercept="0"/></feComponentTransfer><feGaussianBlur stdDeviation="1.33333 1.33333"/></filter><filter id="fx11" x="-10%" y="-10%" width="120%" height="120%" filterUnits="userSpaceOnUse" primitiveUnits="userSpaceOnUse"><feComponentTransfer color-interpolation-filters="sRGB"><feFuncR type="discrete" tableValues="0 0"/><feFuncG type="discrete" tableValues="0 0"/><feFuncB type="discrete" tableValues="0 0"/><feFuncA type="linear" slope="0.4" intercept="0"/></feComponentTransfer><feGaussianBlur stdDeviation="1.33333 1.33333"/></filter><filter id="fx12" x="-10%" y="-10%" width="120%" height="120%" filterUnits="userSpaceOnUse" primitiveUnits="userSpaceOnUse"><feComponentTransfer color-interpolation-filters="sRGB"><feFuncR type="discrete" tableValues="0 0"/><feFuncG type="discrete" tableValues="0 0"/><feFuncB type="discrete" tableValues="0 0"/><feFuncA type="linear" slope="0.4" intercept="0"/></feComponentTransfer><feGaussianBlur stdDeviation="1.33333 1.33333"/></filter><filter id="fx13" x="-10%" y="-10%" width="120%" height="120%" filterUnits="userSpaceOnUse" primitiveUnits="userSpaceOnUse"><feComponentTransfer color-interpolation-filters="sRGB"><feFuncR type="discrete" tableValues="0 0"/><feFuncG type="discrete" tableValues="0 0"/><feFuncB type="discrete" tableValues="0 0"/><feFuncA type="linear" slope="0.4" intercept="0"/></feComponentTransfer><feGaussianBlur stdDeviation="1.33333 1.33333"/></filter><linearGradient x1="879.5" y1="105.5" x2="369.5" y2="614.5" gradientUnits="userSpaceOnUse" spreadMethod="reflect" id="fill14"><stop offset="0" stop-color="#95ABEA"/><stop offset="0.5" stop-color="#BFCBF0"/><stop offset="1" stop-color="#E0E5F7"/></linearGradient><linearGradient x1="796" y1="189" x2="454" y2="531" gradientUnits="userSpaceOnUse" spreadMethod="reflect" id="fill15"><stop offset="0" stop-color="#95ABEA"/><stop offset="0.5" stop-color="#BFCBF0"/><stop offset="1" stop-color="#E0E5F7"/></linearGradient><linearGradient x1="540.008" y1="246.514" x2="709.812" y2="473.486" gradientUnits="userSpaceOnUse" spreadMethod="reflect" id="fill16"><stop offset="0" stop-color="#B3C8F5"/><stop offset="0.5" stop-color="#CFDCF8"/><stop offset="1" stop-color="#E7EDFB"/></linearGradient><clipPath id="clip17"><rect x="1" y="-1" width="21" height="25"/></clipPath><clipPath id="clip18"><rect x="1" y="5" width="49" height="47"/></clipPath><clipPath id="clip19"><rect x="1" y="-1" width="49" height="51"/></clipPath><clipPath id="clip20"><rect x="7" y="5" width="47" height="53"/></clipPath><clipPath id="clip21"><rect x="5" y="3" width="59" height="59"/></clipPath><clipPath id="clip22"><rect x="11" y="5" width="35" height="49"/></clipPath><clipPath id="clip23"><rect x="-1" y="3" width="27" height="17"/></clipPath><clipPath id="clip24"><rect x="-1" y="3" width="27" height="19"/></clipPath><clipPath id="clip25"><rect x="9" y="3" width="35" height="49"/></clipPath><clipPath id="clip26"><rect x="-1" y="5" width="39" height="51"/></clipPath><clipPath id="clip27"><rect x="11" y="3" width="45" height="53"/></clipPath><clipPath id="clip28"><rect x="1" y="1" width="67" height="65"/></clipPath><clipPath id="clip29"><rect x="1" y="1" width="45" height="49"/></clipPath><clipPath id="clip30"><rect x="1" y="-1" width="21" height="27"/></clipPath></defs><g transform="translate(-255 -101)"><path d="M624.5 125.066C495.004 125.066 390.026 230.249 390.026 360 390.026 489.751 495.004 594.934 624.5 594.934 753.996 594.934 858.974 489.751 858.974 360 858.974 230.249 753.996 125.066 624.5 125.066ZM624.5 105C765.056 105 879 219.167 879 360 879 500.833 765.056 615 624.5 615 483.944 615 370 500.833 370 360 370 219.167 483.944 105 624.5 105Z" fill="url(#fill14)" fill-rule="evenodd"/><path d="M624.5 128.9 612.628 129.201 600.914 130.093 589.372 131.563 578.015 133.595 566.858 136.175 555.915 139.289 545.2 142.921 534.728 147.058 524.513 151.686 514.569 156.789 504.911 162.353 495.553 168.364 486.51 174.807 477.796 181.668 469.427 188.932 461.416 196.585 453.778 204.612 446.528 212.998 439.681 221.728 433.25 230.789 427.251 240.166 421.697 249.844 416.604 259.808 411.985 270.044 407.856 280.538 404.23 291.274 401.122 302.24 398.547 313.42 396.519 324.8 395.052 336.366 394.161 348.104 393.861 360 394.161 371.896 395.052 383.634 396.519 395.2 398.547 406.58 401.122 417.76 404.23 428.726 407.856 439.462 411.985 449.956 416.604 460.192 421.697 470.156 427.251 479.834 433.25 489.21 439.681 498.271 446.528 507.002 453.778 515.388 461.416 523.415 469.427 531.068 477.796 538.332 486.51 545.193 495.553 551.636 504.911 557.647 514.569 563.211 524.513 568.314 534.728 572.941 545.2 577.078 555.915 580.711 566.858 583.825 578.015 586.405 589.372 588.437 600.914 589.906 612.628 590.799 624.5 591.1 636.372 590.799 648.086 589.906 659.628 588.437 670.985 586.405 682.142 583.825 693.085 580.711 703.799 577.079 714.272 572.941 724.487 568.314 734.431 563.211 744.089 557.647 753.447 551.636 762.49 545.193 771.203 538.332 779.573 531.068 787.584 523.415 795.221 515.388 802.471 507.002 809.319 498.272 815.75 489.21 821.749 479.834 827.303 470.156 832.396 460.192 837.015 449.956 841.144 439.462 844.77 428.726 847.878 417.76 850.453 406.58 852.481 395.2 853.948 383.634 854.839 371.896 855.139 360 854.839 348.104 853.948 336.366 852.481 324.799 850.453 313.419 847.878 302.24 844.77 291.274 841.144 280.537 837.015 270.044 832.396 259.808 827.303 249.844 821.749 240.166 815.75 230.789 809.319 221.728 802.471 212.998 795.221 204.612 787.584 196.585 779.573 188.932 771.203 181.668 762.49 174.807 753.447 168.364 744.089 162.353 734.431 156.789 724.487 151.686 714.272 147.058 703.799 142.921 693.084 139.289 682.141 136.175 670.985 133.595 659.628 131.563 648.086 130.093 636.372 129.201ZM636.501 126.648 648.344 127.55 660.015 129.036 671.498 131.091 682.779 133.7 693.845 136.848 704.68 140.521 715.269 144.705 725.598 149.384 735.653 154.544 745.418 160.17 754.88 166.247 764.023 172.762 772.832 179.698 781.294 187.042 789.393 194.779 797.115 202.894 804.445 211.372 811.368 220.199 817.869 229.36 823.935 238.841 829.55 248.625 834.7 258.7 839.37 269.05 843.545 279.66 847.211 290.516 850.354 301.604 852.958 312.908 855.008 324.414 856.491 336.108 857.392 347.975 857.695 360 857.392 372.025 856.491 383.892 855.008 395.586 852.958 407.092 850.354 418.396 847.211 429.483 843.545 440.34 839.37 450.95 834.7 461.3 829.55 471.375 823.935 481.159 817.869 490.64 811.368 499.8 804.445 508.628 797.115 517.106 789.393 525.221 781.294 532.958 772.832 540.302 764.023 547.238 754.88 553.753 745.418 559.83 735.653 565.456 725.598 570.616 715.269 575.295 704.68 579.479 693.845 583.152 682.78 586.3 671.498 588.909 660.015 590.964 648.344 592.45 636.501 593.352 624.5 593.656 612.499 593.352 600.656 592.45 588.985 590.964 577.502 588.909 566.22 586.3 555.155 583.152 544.32 579.478 533.731 575.295 523.401 570.616 513.347 565.456 503.581 559.83 494.12 553.753 484.977 547.238 476.167 540.302 467.706 532.958 459.607 525.221 451.885 517.106 444.555 508.627 437.632 499.8 431.13 490.639 425.065 481.159 419.45 471.374 414.3 461.3 409.63 450.95 405.455 440.34 401.788 429.483 398.646 418.396 396.042 407.092 393.991 395.585 392.508 383.892 391.608 372.025 391.304 360 391.608 347.975 392.508 336.108 393.991 324.414 396.042 312.908 398.646 301.604 401.788 290.517 405.455 279.66 409.63 269.05 414.3 258.7 419.45 248.625 425.065 238.841 431.13 229.36 437.632 220.199 444.555 211.372 451.885 202.894 459.607 194.779 467.706 187.042 476.167 179.698 484.977 172.762 494.12 166.247 503.581 160.17 513.347 154.544 523.401 149.384 533.731 144.705 544.32 140.521 555.155 136.848 566.22 133.7 577.502 131.091 588.985 129.036 600.656 127.55 612.499 126.648 624.5 126.344ZM624.5 123.787 612.369 124.095 600.397 125.007 588.599 126.509 576.989 128.586 565.582 131.224 554.394 134.407 543.44 138.121 532.733 142.351 522.29 147.082 512.125 152.298 502.252 157.986 492.687 164.13 483.444 170.716 474.538 177.728 465.984 185.152 457.797 192.973 449.992 201.177 442.582 209.747 435.583 218.67 429.011 227.931 422.879 237.515 417.202 247.407 411.996 257.592 407.275 268.056 403.053 278.783 399.347 289.759 396.17 300.968 393.538 312.397 391.464 324.029 389.965 335.851 389.055 347.846 388.748 360 389.055 372.154 389.965 384.149 391.464 395.971 393.538 407.603 396.17 419.031 399.347 430.241 403.053 441.217 407.275 451.944 411.996 462.408 417.202 472.593 422.879 482.485 429.011 492.068 435.583 501.329 442.582 510.253 449.992 518.823 457.797 527.026 465.984 534.848 474.538 542.272 483.444 549.284 492.687 555.87 502.252 562.014 512.125 567.702 522.29 572.918 532.733 577.649 543.44 581.878 554.394 585.592 565.582 588.776 576.989 591.413 588.599 593.491 600.397 594.993 612.369 595.905 624.5 596.212 636.631 595.905 648.603 594.993 660.401 593.491 672.011 591.413 683.417 588.776 694.605 585.592 705.56 581.879 716.266 577.649 726.71 572.918 736.875 567.702 746.748 562.014 756.313 555.87 765.556 549.284 774.461 542.272 783.015 534.848 791.203 527.027 799.008 518.823 806.418 510.253 813.416 501.329 819.989 492.069 826.121 482.485 831.797 472.593 837.004 462.408 841.725 451.944 845.946 441.217 849.653 430.241 852.83 419.032 855.462 407.603 857.535 395.971 859.035 384.149 859.945 372.154 860.252 360 859.945 347.846 859.035 335.85 857.535 324.029 855.462 312.397 852.83 300.968 849.653 289.759 845.946 278.783 841.725 268.056 837.004 257.592 831.797 247.407 826.121 237.515 819.989 227.931 813.416 218.67 806.418 209.747 799.008 201.177 791.202 192.973 783.015 185.152 774.461 177.728 765.556 170.716 756.313 164.13 746.748 157.986 736.875 152.298 726.709 147.082 716.266 142.351 705.56 138.121 694.605 134.407 683.417 131.224 672.011 128.586 660.401 126.509 648.603 125.007 636.631 124.095ZM636.76 121.542 648.861 122.464 660.788 123.982 672.524 126.082 684.055 128.749 695.366 131.967 706.44 135.721 717.264 139.997 727.821 144.779 738.097 150.053 748.077 155.802 757.746 162.013 767.088 168.67 776.09 175.758 784.736 183.262 793.012 191.168 800.902 199.459 808.391 208.122 815.465 217.141 822.108 226.502 828.307 236.19 834.045 246.189 839.308 256.484 844.08 267.062 848.347 277.906 852.094 289.001 855.306 300.333 857.967 311.885 860.063 323.644 861.578 335.593 862.498 347.717 862.808 360 862.498 372.283 861.578 384.407 860.063 396.356 857.967 408.114 855.306 419.667 852.094 430.999 848.347 442.094 844.08 452.938 839.308 463.515 834.045 473.811 828.307 483.81 822.108 493.498 815.465 502.858 808.391 511.878 800.902 520.541 793.012 528.832 784.736 536.738 776.09 544.242 767.089 551.33 757.746 557.987 748.077 564.197 738.097 569.947 727.821 575.22 717.264 580.003 706.44 584.279 695.366 588.033 684.055 591.251 672.524 593.918 660.788 596.018 648.861 597.536 636.76 598.458 624.5 598.769 612.24 598.458 600.138 597.536 588.212 596.018 576.475 593.918 564.944 591.251 553.634 588.033 542.56 584.278 531.736 580.003 521.179 575.22 510.903 569.947 500.923 564.197 491.254 557.987 481.911 551.33 472.909 544.242 464.263 536.738 455.988 528.832 448.098 520.541 440.609 511.878 433.535 502.858 426.891 493.497 420.693 483.81 414.955 473.811 409.692 463.515 404.92 452.938 400.652 442.094 396.905 430.999 393.694 419.667 391.033 408.114 388.937 396.356 387.422 384.407 386.502 372.283 386.192 360 386.502 347.717 387.422 335.593 388.937 323.644 391.033 311.886 393.694 300.333 396.905 289.001 400.652 277.906 404.92 267.062 409.692 256.485 414.955 246.189 420.693 236.19 426.891 226.502 433.535 217.141 440.609 208.122 448.098 199.459 455.988 191.168 464.263 183.262 472.909 175.758 481.911 168.67 491.254 162.013 500.923 155.802 510.903 150.053 521.179 144.779 531.736 139.997 542.56 135.721 553.634 131.967 564.944 128.749 576.475 126.082 588.212 123.982 600.138 122.464 612.24 121.542 624.5 121.231ZM624.5 101.165 637.791 101.502 650.909 102.502 663.838 104.148 676.561 106.424 689.06 109.315 701.321 112.803 713.326 116.873 725.059 121.509 736.503 126.693 747.643 132.409 758.461 138.642 768.943 145.375 779.071 152.591 788.829 160.275 798.202 168.409 807.173 176.979 815.726 185.968 823.844 195.359 831.513 205.136 838.715 215.284 845.434 225.785 851.654 236.624 857.359 247.785 862.533 259.251 867.159 271.007 871.22 283.034 874.702 295.318 877.586 307.842 879.858 320.588 881.501 333.541 882.498 346.684 882.835 360 882.499 373.316 881.501 386.459 879.858 399.412 877.587 412.158 874.702 424.682 871.22 436.966 867.159 448.993 862.533 460.749 857.359 472.215 851.654 483.376 845.434 494.215 838.715 504.716 831.513 514.864 823.844 524.641 815.726 534.032 807.173 543.021 798.202 551.591 788.829 559.725 779.071 567.409 768.943 574.625 758.461 581.358 747.643 587.591 736.503 593.307 725.059 598.491 713.326 603.127 701.321 607.197 689.06 610.685 676.561 613.576 663.838 615.852 650.909 617.498 637.791 618.498 624.5 618.835 611.209 618.498 598.091 617.498 585.162 615.852 572.439 613.576 559.94 610.685 547.679 607.197 535.674 603.127 523.941 598.491 512.497 593.307 501.357 587.591 490.539 581.358 480.057 574.625 469.929 567.409 460.171 559.725 450.798 551.591 441.827 543.021 433.274 534.032 425.156 524.641 417.487 514.864 410.285 504.716 403.566 494.215 397.346 483.376 391.641 472.215 386.467 460.749 381.841 448.993 377.78 436.966 374.298 424.682 371.413 412.158 369.142 399.412 367.499 386.459 366.501 373.316 366.165 360 366.501 346.684 367.499 333.541 369.142 320.588 371.414 307.842 374.298 295.318 377.78 283.034 381.841 271.007 386.467 259.251 391.641 247.785 397.346 236.624 403.566 225.785 410.285 215.284 417.487 205.136 425.156 195.359 433.274 185.968 441.827 176.979 450.798 168.409 460.171 160.275 469.929 152.591 480.057 145.375 490.539 138.642 501.357 132.409 512.497 126.693 523.941 121.509 535.674 116.873 547.679 112.803 559.94 109.315 572.44 106.424 585.162 104.148 598.091 102.502 611.209 101.502ZM611.339 104.055 598.35 105.045 585.549 106.675 572.953 108.929 560.578 111.79 548.439 115.244 536.554 119.273 524.938 123.862 513.608 128.995 502.579 134.654 491.868 140.825 481.49 147.492 471.462 154.637 461.8 162.245 452.519 170.299 443.637 178.785 435.168 187.685 427.129 196.984 419.536 206.665 412.405 216.713 405.752 227.111 399.593 237.843 393.945 248.893 388.822 260.246 384.242 271.884 380.221 283.792 376.774 295.954 373.918 308.353 371.669 320.973 370.042 333.799 369.055 346.813 368.722 360 369.055 373.187 370.042 386.201 371.669 399.027 373.918 411.647 376.774 424.046 380.221 436.208 384.242 448.116 388.822 459.754 393.945 471.107 399.593 482.157 405.752 492.889 412.405 503.287 419.536 513.335 427.129 523.016 435.168 532.315 443.637 541.215 452.519 549.701 461.8 557.755 471.462 565.363 481.49 572.508 491.868 579.175 502.579 585.346 513.608 591.005 524.938 596.138 536.554 600.727 548.439 604.756 560.578 608.21 572.953 611.071 585.549 613.325 598.349 614.955 611.339 615.945 624.5 616.278 637.661 615.945 650.651 614.955 663.451 613.325 676.047 611.071 688.422 608.21 700.561 604.756 712.446 600.727 724.062 596.138 735.392 591.005 746.421 585.346 757.132 579.175 767.51 572.508 777.538 565.363 787.2 557.755 796.481 549.701 805.363 541.215 813.832 532.315 821.871 523.016 829.464 513.335 836.595 503.287 843.248 492.889 849.407 482.157 855.055 471.107 860.178 459.754 864.758 448.116 868.779 436.208 872.226 424.046 875.082 411.647 877.331 399.027 878.958 386.201 879.945 373.187 880.278 360 879.945 346.813 878.958 333.799 877.331 320.973 875.082 308.353 872.226 295.954 868.779 283.792 864.758 271.884 860.178 260.245 855.055 248.893 849.407 237.843 843.248 227.111 836.595 216.713 829.464 206.665 821.871 196.984 813.832 187.685 805.363 178.785 796.481 170.299 787.2 162.245 777.538 154.637 767.51 147.492 757.132 140.825 746.421 134.654 735.392 128.995 724.062 123.862 712.446 119.273 700.561 115.244 688.422 111.79 676.047 108.929 663.451 106.675 650.65 105.045 637.661 104.055 624.5 103.722ZM624.5 106.278 637.532 106.608 650.392 107.588 663.064 109.202 675.534 111.433 687.785 114.266 699.8 117.685 711.565 121.673 723.064 126.216 734.281 131.297 745.199 136.9 755.803 143.009 766.077 149.608 776.005 156.682 785.571 164.215 794.759 172.189 803.554 180.591 811.939 189.403 819.898 198.609 827.416 208.194 834.476 218.142 841.062 228.436 847.16 239.061 852.752 250.001 857.823 261.24 862.356 272.761 866.337 284.55 869.75 296.589 872.577 308.864 874.804 321.359 876.414 334.057 877.392 346.942 877.722 360 877.392 373.058 876.414 385.943 874.804 398.641 872.577 411.136 869.75 423.411 866.337 435.45 862.357 447.239 857.823 458.76 852.752 469.999 847.16 480.939 841.062 491.564 834.476 501.858 827.416 511.806 819.898 521.391 811.939 530.597 803.554 539.409 794.76 547.811 785.571 555.785 776.005 563.318 766.077 570.392 755.803 576.991 745.199 583.1 734.281 588.703 723.064 593.784 711.565 598.327 699.8 602.315 687.785 605.734 675.534 608.567 663.065 610.798 650.392 612.412 637.532 613.392 624.5 613.722 611.468 613.392 598.608 612.412 585.935 610.798 573.466 608.567 561.215 605.734 549.2 602.315 537.435 598.327 525.936 593.784 514.719 588.703 503.801 583.1 493.197 576.991 482.923 570.391 472.995 563.318 463.429 555.785 454.241 547.811 445.446 539.409 437.061 530.597 429.102 521.391 421.584 511.806 414.524 501.858 407.938 491.564 401.84 480.939 396.248 469.999 391.177 458.76 386.643 447.239 382.663 435.45 379.25 423.411 376.423 411.136 374.196 398.641 372.586 385.943 371.608 373.058 371.278 360 371.608 346.942 372.586 334.057 374.196 321.359 376.423 308.864 379.25 296.589 382.663 284.55 386.644 272.761 391.177 261.24 396.248 250.001 401.84 239.061 407.938 228.436 414.524 218.142 421.584 208.194 429.102 198.609 437.061 189.403 445.446 180.591 454.241 172.189 463.429 164.215 472.995 156.682 482.923 149.608 493.197 143.009 503.801 136.9 514.719 131.297 525.936 126.216 537.435 121.673 549.2 117.685 561.216 114.266 573.466 111.433 585.936 109.202 598.608 107.588 611.468 106.608ZM611.598 109.161 598.867 110.131 586.322 111.729 573.979 113.937 561.854 116.741 549.96 120.125 538.315 124.073 526.933 128.57 515.831 133.599 505.023 139.145 494.526 145.193 484.356 151.725 474.528 158.728 465.058 166.185 455.962 174.079 447.255 182.396 438.955 191.12 431.075 200.234 423.633 209.723 416.644 219.571 410.124 229.761 404.088 240.279 398.552 251.109 393.533 262.234 389.045 273.638 385.104 285.307 381.726 297.225 378.928 309.376 376.723 321.744 375.129 334.314 374.161 347.071 373.835 360 374.161 372.929 375.129 385.686 376.723 398.256 378.928 410.624 381.726 422.775 385.104 434.693 389.045 446.362 393.533 457.766 398.552 468.891 404.088 479.721 410.124 490.239 416.644 500.429 423.633 510.277 431.075 519.766 438.955 528.88 447.255 537.604 455.962 545.921 465.058 553.815 474.528 561.272 484.356 568.275 494.526 574.807 505.023 580.855 515.831 586.401 526.933 591.43 538.315 595.927 549.96 599.875 561.853 603.259 573.979 606.063 586.322 608.271 598.867 609.869 611.598 610.839 624.5 611.165 637.402 610.839 650.133 609.869 662.678 608.271 675.021 606.063 687.147 603.259 699.04 599.875 710.685 595.927 722.067 591.43 733.169 586.401 743.977 580.855 754.474 574.807 764.644 568.275 774.472 561.272 783.942 553.815 793.038 545.921 801.745 537.604 810.045 528.88 817.925 519.766 825.367 510.277 832.356 500.429 838.876 490.239 844.912 479.721 850.448 468.891 855.467 457.766 859.955 446.362 863.896 434.693 867.274 422.775 870.072 410.624 872.277 398.256 873.871 385.686 874.839 372.929 875.165 360 874.839 347.071 873.871 334.314 872.277 321.744 870.072 309.376 867.274 297.225 863.896 285.307 859.955 273.638 855.467 262.234 850.448 251.109 844.912 240.279 838.876 229.761 832.356 219.571 825.367 209.723 817.925 200.234 810.045 191.12 801.745 182.396 793.038 174.079 783.942 166.185 774.472 158.728 764.644 151.725 754.474 145.193 743.977 139.145 733.169 133.599 722.067 128.57 710.685 124.073 699.04 120.125 687.147 116.741 675.021 113.937 662.678 111.729 650.133 110.131 637.402 109.161 624.5 108.835Z" fill="#172C51"/><path d="M625 199.452C536.332 199.452 464.452 271.332 464.452 360 464.452 448.668 536.332 520.548 625 520.548 713.668 520.548 785.548 448.668 785.548 360 785.548 271.332 713.668 199.452 625 199.452ZM625 189C719.441 189 796 265.559 796 360 796 454.441 719.441 531 625 531 530.559 531 454 454.441 454 360 454 265.559 530.559 189 625 189Z" fill="url(#fill15)" fill-rule="evenodd"/><path d="M625 201.62 616.848 201.826 608.804 202.437 600.877 203.445 593.078 204.837 585.416 206.606 577.927 208.732 563.352 214.067 549.508 220.736 536.45 228.669 524.257 237.787 513.009 248.009 502.787 259.257 493.669 271.45 485.736 284.508 479.067 298.352 473.732 312.927 471.606 320.417 469.837 328.078 468.445 335.877 467.437 343.804 466.826 351.848 466.62 360 466.826 368.152 467.437 376.196 468.445 384.123 469.837 391.922 471.606 399.584 473.732 407.073 479.067 421.648 485.736 435.492 493.669 448.55 502.787 460.743 513.009 471.991 524.257 482.213 536.45 491.331 549.508 499.264 563.352 505.933 577.927 511.268 585.417 513.394 593.078 515.163 600.877 516.555 608.804 517.563 616.848 518.174 625 518.38 633.152 518.174 641.196 517.563 649.123 516.555 656.922 515.163 664.583 513.394 672.073 511.268 686.648 505.933 700.492 499.264 713.55 491.331 725.743 482.213 736.991 471.991 747.213 460.743 756.331 448.55 764.264 435.492 770.933 421.648 776.268 407.073 778.394 399.584 780.163 391.922 781.555 384.123 782.563 376.196 783.174 368.152 783.38 360 783.174 351.848 782.563 343.804 781.555 335.877 780.163 328.078 778.394 320.416 776.268 312.927 770.933 298.352 764.264 284.508 756.331 271.45 747.214 259.257 736.991 248.009 725.743 237.787 713.55 228.669 700.492 220.736 686.648 214.067 672.073 208.732 664.584 206.606 656.922 204.837 649.123 203.445 641.196 202.437 633.152 201.826ZM633.225 200.383 641.342 201 649.341 202.016 657.211 203.422 664.943 205.206 672.519 207.358 687.211 212.735 701.182 219.465 714.359 227.47 726.663 236.671 738.013 246.987 748.329 258.337 757.53 270.641 765.535 283.818 772.265 297.789 777.642 312.481 779.794 320.057 781.578 327.789 782.984 335.659 784 343.658 784.617 351.775 784.825 360 784.617 368.225 784 376.342 782.984 384.341 781.578 392.211 779.794 399.943 777.642 407.519 772.265 422.211 765.535 436.182 757.53 449.359 748.329 461.663 738.013 473.013 726.663 483.329 714.359 492.53 701.182 500.535 687.211 507.265 672.519 512.642 664.943 514.794 657.211 516.578 649.341 517.984 641.342 519 633.225 519.617 625 519.825 616.775 519.617 608.658 519 600.659 517.984 592.789 516.578 585.057 514.794 577.481 512.642 562.789 507.265 548.818 500.535 535.641 492.53 523.337 483.329 511.987 473.013 501.671 461.663 492.47 449.359 484.465 436.182 477.735 422.211 472.358 407.519 470.206 399.943 468.422 392.211 467.016 384.341 466 376.342 465.383 368.225 465.175 360 465.383 351.775 466 343.658 467.016 335.659 468.422 327.789 470.206 320.057 472.358 312.481 477.735 297.789 484.465 283.818 492.47 270.641 501.671 258.337 511.987 246.987 523.337 236.671 535.641 227.47 548.818 219.465 562.789 212.735 577.481 207.358 585.057 205.206 592.789 203.422 600.659 202.016 608.658 201 616.775 200.383 625 200.175ZM625 198.73 616.702 198.94 608.512 199.562 600.441 200.588 592.499 202.006 584.697 203.807 577.035 205.983 562.226 211.403 548.128 218.194 534.831 226.272 522.417 235.556 510.964 245.964 500.556 257.417 491.272 269.831 483.194 283.128 476.403 297.226 470.983 312.035 468.807 319.697 467.006 327.499 465.588 335.441 464.562 343.512 463.94 351.702 463.73 360 463.94 368.298 464.562 376.488 465.588 384.559 467.006 392.501 468.807 400.303 470.983 407.965 476.403 422.774 483.194 436.872 491.272 450.169 500.556 462.584 510.964 474.036 522.417 484.444 534.831 493.728 548.128 501.806 562.226 508.597 577.035 514.017 584.697 516.193 592.499 517.994 600.441 519.412 608.512 520.438 616.702 521.06 625 521.27 633.298 521.06 641.488 520.438 649.559 519.412 657.501 517.994 665.303 516.193 672.965 514.017 687.774 508.597 701.872 501.806 715.169 493.728 727.583 484.444 739.036 474.036 749.444 462.584 758.728 450.169 766.806 436.872 773.597 422.774 779.017 407.965 781.193 400.303 782.994 392.501 784.412 384.559 785.438 376.488 786.06 368.298 786.27 360 786.06 351.702 785.438 343.512 784.412 335.441 782.994 327.499 781.193 319.697 779.017 312.035 773.597 297.226 766.806 283.128 758.728 269.831 749.444 257.416 739.036 245.964 727.584 235.556 715.169 226.272 701.872 218.194 687.774 211.403 672.965 205.983 665.303 203.807 657.501 202.006 649.559 200.588 641.488 199.562 633.298 198.94ZM633.371 197.496 641.634 198.125 649.777 199.16 657.79 200.591 665.663 202.408 673.411 204.608 688.337 210.071 702.562 216.923 715.978 225.074 728.504 234.44 740.058 244.942 750.56 256.496 759.926 269.022 768.077 282.438 774.929 296.663 780.392 311.589 782.592 319.337 784.409 327.21 785.84 335.223 786.875 343.366 787.503 351.629 787.715 360 787.503 368.371 786.875 376.634 785.84 384.777 784.409 392.79 782.592 400.663 780.392 408.411 774.929 423.337 768.077 437.562 759.926 450.978 750.56 463.504 740.058 475.058 728.504 485.56 715.978 494.926 702.562 503.077 688.337 509.929 673.411 515.392 665.663 517.592 657.79 519.409 649.777 520.84 641.634 521.875 633.371 522.503 625 522.715 616.629 522.503 608.366 521.875 600.223 520.84 592.21 519.409 584.337 517.592 576.589 515.392 561.663 509.929 547.438 503.077 534.022 494.926 521.496 485.56 509.942 475.058 499.44 463.504 490.074 450.978 481.923 437.562 475.071 423.337 469.608 408.411 467.408 400.663 465.591 392.79 464.16 384.777 463.125 376.634 462.497 368.371 462.285 360 462.496 351.629 463.125 343.366 464.16 335.223 465.591 327.21 467.408 319.337 469.608 311.589 475.071 296.663 481.923 282.438 490.074 269.022 499.44 256.496 509.942 244.942 521.496 234.44 534.022 225.074 547.438 216.923 561.663 210.071 576.589 204.608 584.337 202.408 592.21 200.591 600.223 199.16 608.366 198.125 616.629 197.497 625 197.285ZM625 186.833 633.909 187.058 642.703 187.727 651.369 188.828 659.897 190.351 668.275 192.285 676.494 194.618 684.541 197.341 692.43 200.452 707.544 207.732 721.822 216.407 735.152 226.375 747.449 237.551 758.625 249.848 768.594 263.178 777.268 277.456 784.548 292.57 787.659 300.459 790.382 308.506 792.715 316.725 794.649 325.103 796.172 333.631 797.273 342.297 797.942 351.091 798.167 360 797.942 368.909 797.273 377.703 796.172 386.369 794.649 394.897 792.716 403.275 790.382 411.494 787.659 419.541 784.548 427.43 777.268 442.544 768.594 456.822 758.625 470.152 747.449 482.449 735.152 493.625 721.822 503.593 707.544 512.268 692.43 519.548 684.541 522.659 676.494 525.382 668.275 527.715 659.897 529.649 651.369 531.172 642.703 532.273 633.909 532.942 625 533.167 616.091 532.942 607.297 532.273 598.631 531.172 590.103 529.649 581.725 527.716 573.506 525.382 565.459 522.659 557.57 519.548 542.456 512.268 528.178 503.594 514.848 493.625 502.551 482.449 491.375 470.152 481.406 456.822 472.732 442.544 465.452 427.43 462.341 419.541 459.618 411.494 457.284 403.275 455.351 394.897 453.828 386.369 452.727 377.703 452.058 368.909 451.833 360 452.058 351.091 452.727 342.297 453.828 333.631 455.351 325.103 457.285 316.725 459.618 308.506 462.341 300.459 465.452 292.57 472.732 277.456 481.407 263.178 491.375 249.848 502.551 237.551 514.848 226.375 528.178 216.406 542.456 207.732 557.57 200.452 565.459 197.341 573.506 194.618 581.725 192.284 590.103 190.351 598.631 188.828 607.297 187.727 616.091 187.058ZM616.164 188.501 607.443 189.164 598.849 190.256 590.393 191.766 582.084 193.684 573.935 195.998 565.956 198.698 558.15 201.776 543.146 209.003 528.988 217.605 515.768 227.49 503.573 238.573 492.49 250.768 482.605 263.988 474.003 278.146 466.776 293.15 463.698 300.956 460.998 308.935 458.684 317.084 456.766 325.393 455.256 333.849 454.164 342.443 453.501 351.164 453.278 360 453.501 368.836 454.164 377.557 455.256 386.151 456.766 394.607 458.684 402.916 460.998 411.065 463.698 419.044 466.776 426.85 474.003 441.854 482.605 456.012 492.49 469.232 503.573 481.427 515.768 492.51 528.988 502.395 543.146 510.997 558.15 518.224 565.956 521.302 573.935 524.002 582.084 526.316 590.393 528.234 598.849 529.744 607.443 530.836 616.164 531.499 625 531.722 633.836 531.499 642.557 530.836 651.151 529.744 659.607 528.234 667.916 526.316 676.065 524.002 684.044 521.302 691.85 518.224 706.854 510.997 721.012 502.395 734.232 492.51 746.427 481.427 757.51 469.232 767.395 456.012 775.997 441.854 783.224 426.85 786.302 419.044 789.002 411.065 791.316 402.916 793.234 394.607 794.744 386.151 795.836 377.557 796.499 368.836 796.722 360 796.499 351.164 795.836 342.443 794.744 333.849 793.234 325.393 791.316 317.085 789.002 308.935 786.302 300.956 783.224 293.15 775.997 278.146 767.395 263.988 757.51 250.768 746.427 238.573 734.232 227.49 721.012 217.605 706.854 209.003 691.85 201.776 684.044 198.698 676.065 195.998 667.916 193.684 659.607 191.766 651.151 190.256 642.557 189.164 633.836 188.501 625 188.278ZM625 189.722 633.763 189.944 642.411 190.602 650.933 191.684 659.318 193.182 667.556 195.083 675.636 197.378 683.547 200.055 691.271 203.1 706.164 210.274 720.203 218.803 733.312 228.606 745.404 239.596 756.394 251.688 766.197 264.797 774.726 278.836 781.9 293.729 784.945 301.453 787.622 309.364 789.917 317.444 791.818 325.682 793.315 334.068 794.398 342.589 795.056 351.237 795.278 360 795.056 368.763 794.398 377.411 793.316 385.933 791.818 394.318 789.917 402.556 787.622 410.636 784.945 418.547 781.9 426.271 774.726 441.164 766.197 455.203 756.394 468.312 745.404 480.404 733.312 491.394 720.203 501.197 706.164 509.726 691.271 516.9 683.547 519.945 675.636 522.622 667.556 524.917 659.318 526.818 650.932 528.315 642.411 529.398 633.763 530.056 625 530.278 616.237 530.056 607.589 529.398 599.067 528.316 590.682 526.818 582.444 524.917 574.364 522.622 566.453 519.945 558.729 516.9 543.836 509.726 529.797 501.197 516.688 491.394 504.596 480.404 493.606 468.312 483.803 455.203 475.274 441.164 468.1 426.271 465.055 418.547 462.378 410.636 460.083 402.556 458.182 394.318 456.684 385.932 455.602 377.411 454.944 368.763 454.722 360 454.944 351.237 455.602 342.589 456.684 334.067 458.182 325.682 460.083 317.444 462.378 309.364 465.055 301.453 468.1 293.729 475.274 278.836 483.803 264.797 493.606 251.688 504.596 239.596 516.688 228.606 529.797 218.803 543.836 210.274 558.729 203.1 566.453 200.055 574.364 197.378 582.444 195.083 590.682 193.182 599.068 191.684 607.589 190.602 616.237 189.944ZM616.31 191.387 607.735 192.039 599.286 193.113 590.972 194.597 582.804 196.483 574.793 198.757 566.95 201.411 559.308 204.424 544.526 211.545 530.606 220.002 517.609 229.721 505.619 240.619 494.721 252.609 485.002 265.606 476.545 279.526 469.425 294.308 466.411 301.95 463.757 309.793 461.483 317.804 459.598 325.972 458.113 334.286 457.039 342.735 456.387 351.31 456.167 360 456.387 368.69 457.039 377.265 458.113 385.714 459.597 394.028 461.483 402.196 463.757 410.207 466.411 418.05 469.424 425.692 476.545 440.474 485.002 454.394 494.721 467.391 505.619 479.381 517.609 490.279 530.606 499.998 544.526 508.455 559.308 515.576 566.95 518.589 574.793 521.243 582.804 523.517 590.972 525.402 599.286 526.887 607.735 527.961 616.31 528.613 625 528.833 633.69 528.613 642.265 527.961 650.714 526.887 659.028 525.402 667.196 523.517 675.207 521.243 683.05 518.589 690.692 515.575 705.474 508.455 719.394 499.998 732.391 490.279 744.381 479.381 755.279 467.391 764.998 454.394 773.455 440.474 780.576 425.692 783.589 418.05 786.243 410.207 788.517 402.196 790.402 394.028 791.887 385.714 792.961 377.265 793.613 368.69 793.833 360 793.613 351.31 792.961 342.735 791.887 334.286 790.402 325.972 788.517 317.804 786.243 309.793 783.589 301.95 780.575 294.308 773.455 279.526 764.998 265.606 755.279 252.609 744.381 240.619 732.391 229.721 719.394 220.002 705.474 211.545 690.692 204.425 683.05 201.411 675.207 198.757 667.196 196.483 659.028 194.597 650.714 193.113 642.265 192.039 633.69 191.387 625 191.167Z" fill="#172C51"/><path d="M919.918 138.326 875.308 237.468 986.031 266.839 329.574 581.831 374.148 482.17 263.788 453.161Z" fill="url(#fill16)" fill-rule="evenodd"/><path d="M925.345 132.764 879.03 235.696 993.703 266.115 324.17 587.382 370.431 483.95 256.093 453.895ZM261.223 453.406 372.909 482.763 327.773 583.681 988.589 266.598 876.549 236.877 921.727 136.472ZM918.109 140.18 874.068 238.059 983.474 267.08 331.375 579.981 375.387 481.576 266.353 452.916ZM271.483 452.426 377.866 480.39 334.978 576.28 978.359 267.563 871.587 239.24 914.492 143.888Z" fill="#172C51"/><text fill="#FFFFFF" font-family="Arial Black,Arial Black_MSFontService,sans-serif" font-weight="900" font-size="64" transform="matrix(0.901581 -0.432611 0.432611 0.901581 466.491 460)">STAMP ME</text><g clip-path="url(#clip17)" filter="url(#fx0)" transform="translate(435 268)"><g><path d="M8.07087 16.2524 12.5743 5.08423C12.6318 4.94173 12.7106 4.82337 12.8107 4.72914 12.9108 4.63491 13.0528 4.57824 13.2365 4.55914 13.4202 4.54004 13.6368 4.5549 13.8863 4.60375 14.1359 4.65259 14.4298 4.74525 14.7683 4.88172 15.4629 5.16184 15.9115 5.43592 16.1141 5.70397 16.3166 5.97202 16.3568 6.25745 16.2347 6.56025L11.7313 17.7284C11.602 18.049 11.367 18.2339 11.0262 18.2828 10.6855 18.3318 10.1767 18.2198 9.49985 17.9469 8.82299 17.674 8.38329 17.4035 8.18075 17.1354 7.97821 16.8674 7.94159 16.573 8.07087 16.2524Z" fill-rule="evenodd"/></g></g><path d="M441.187 283.581 445.69 272.413C445.748 272.27 445.827 272.152 445.927 272.057 446.027 271.963 446.169 271.907 446.353 271.887 446.536 271.868 446.753 271.883 447.003 271.932 447.252 271.981 447.546 272.074 447.884 272.21 448.579 272.49 449.028 272.764 449.23 273.032 449.433 273.3 449.473 273.586 449.351 273.889L444.847 285.057C444.718 285.377 444.483 285.562 444.142 285.611 443.802 285.66 443.293 285.548 442.616 285.275 441.939 285.002 441.499 284.732 441.297 284.464 441.094 284.196 441.058 283.901 441.187 283.581Z" fill-rule="evenodd"/><text fill="#000000" fill-opacity="0" font-family="Arial,Arial_MSFontService,sans-serif" font-size="13.7429" x="441.111" y="283.904">-</text><g clip-path="url(#clip18)" filter="url(#fx1)" transform="translate(436 217)"><g><path d="M10.4 16.4834C10.8832 15.8137 11.4277 15.1822 12.0333 14.589 12.639 13.9958 13.2555 13.4696 13.8828 13.0104 14.5101 12.5513 15.1131 12.1752 15.6916 11.8821 16.2702 11.589 16.6868 11.4219 16.9415 11.3807 17.1962 11.3395 17.3833 11.3264 17.5026 11.3415 17.622 11.3566 17.7591 11.3963 17.914 11.4607 18.0689 11.5251 18.2454 11.6169 18.4435 11.7362 18.6416 11.8555 18.8887 12.0219 19.1846 12.2354 19.4649 12.4376 19.7057 12.6291 19.9069 12.8098 20.1081 12.9905 20.2658 13.1576 20.38 13.3111 20.4943 13.4646 20.5555 13.6094 20.5638 13.7456 20.5721 13.8819 20.5369 14.0045 20.4582 14.1135 20.3346 14.2849 20.0318 14.4749 19.5496 14.6835 19.0675 14.8922 18.4991 15.163 17.8445 15.4959 17.1898 15.8288 16.4883 16.2758 15.7399 16.8371 14.9915 17.3984 14.2915 18.1307 13.6397 19.0341 13.0328 19.8751 12.6176 20.6886 12.3939 21.4745 12.1702 22.2605 12.0992 22.9908 12.1808 23.6654 12.2624 24.3401 12.4872 24.964 12.8551 25.5374 13.2229 26.1107 13.695 26.6052 14.2713 27.021 15.1123 27.6279 15.977 27.9557 16.8654 28.0046 17.7537 28.0535 18.6647 27.9234 19.5983 27.6141 20.5319 27.3049 21.4912 26.878 22.4762 26.3335 23.4612 25.789 24.4613 25.2317 25.4765 24.6617 26.4917 24.0916 27.5346 23.5652 28.6053 23.0825 29.6759 22.5998 30.7676 22.2684 31.8803 22.0884 32.993 21.9085 34.1326 21.9373 35.2992 22.1751 36.4657 22.4129 37.6486 22.9644 38.8479 23.8297 40.2652 24.8524 41.3385 26.0235 42.0679 27.3431 42.7972 28.6628 43.213 30.0641 43.3153 31.547 43.4177 33.03 43.2112 34.5388 42.6959 36.0735 42.1806 37.6083 41.4005 39.0998 40.3554 40.5483 39.6249 41.5607 38.8622 42.4372 38.0672 43.178 37.2722 43.9188 36.5056 44.538 35.7676 45.0357 35.0295 45.5334 34.3624 45.9165 33.7661 46.1849 33.1698 46.4533 32.7136 46.6097 32.3975 46.6539 32.0814 46.6982 31.7483 46.6592 31.3984 46.537 31.0484 46.4147 30.6321 46.1794 30.1492 45.8311 29.8066 45.5838 29.5336 45.3632 29.3302 45.1691 29.1269 44.975 28.9776 44.7962 28.8824 44.6328 28.7871 44.4693 28.746 44.3212 28.7589 44.1884 28.7718 44.0557 28.8232 43.927 28.9131 43.8024 29.0704 43.5843 29.4248 43.3722 29.9761 43.1661 30.5274 42.96 31.1836 42.6578 31.9446 42.2596 32.7056 41.8614 33.5399 41.3206 34.4474 40.6373 35.3548 39.9539 36.2244 39.036 37.056 37.8835 37.6853 37.0113 38.1444 36.1288 38.4333 35.236 38.7223 34.3432 38.8408 33.4814 38.789 32.6506 38.7371 31.8198 38.5008 31.0395 38.0801 30.3097 37.6594 29.5798 37.0519 28.9283 36.2576 28.3552 35.401 27.7371 34.5285 27.4036 33.6401 27.3547 32.7518 27.3058 31.8475 27.4349 30.9273 27.742 30.0071 28.049 29.0612 28.4737 28.0896 29.0161 27.1181 29.5584 26.1247 30.1146 25.1094 30.6847 24.0942 31.2547 23.053 31.7705 21.9858 32.2321 20.9187 32.6936 19.8276 33.0076 18.7127 33.1742 17.5979 33.3408 16.4571 33.3052 15.2906 33.0674 14.1241 32.8297 12.9256 32.2669 11.6952 31.3791 10.4336 30.4689 9.4741 29.4272 8.81661 28.2542 8.15912 27.0811 7.79051 25.8441 7.71077 24.5432 7.63103 23.2423 7.82331 21.9009 8.28761 20.5189 8.75191 19.1368 9.45605 17.7917 10.4 16.4834Z" fill-rule="evenodd"/></g></g><path d="M444.516 232.812C444.999 232.142 445.544 231.511 446.149 230.917 446.755 230.324 447.372 229.798 447.999 229.339 448.626 228.88 449.229 228.503 449.808 228.21 450.386 227.917 450.803 227.75 451.058 227.709 451.312 227.668 451.499 227.655 451.619 227.67 451.738 227.685 451.875 227.725 452.03 227.789 452.185 227.853 452.362 227.945 452.56 228.064 452.758 228.184 453.005 228.35 453.301 228.564 453.581 228.766 453.822 228.957 454.023 229.138 454.224 229.319 454.382 229.486 454.496 229.639 454.61 229.793 454.672 229.938 454.68 230.074 454.688 230.21 454.653 230.333 454.574 230.442 454.451 230.613 454.148 230.803 453.666 231.012 453.184 231.221 452.615 231.491 451.961 231.824 451.306 232.157 450.604 232.604 449.856 233.165 449.108 233.727 448.408 234.459 447.756 235.362 447.149 236.203 446.734 237.017 446.51 237.803 446.286 238.589 446.215 239.319 446.297 239.994 446.379 240.668 446.603 241.292 446.971 241.866 447.339 242.439 447.811 242.934 448.387 243.349 449.228 243.956 450.093 244.284 450.982 244.333 451.87 244.382 452.781 244.252 453.714 243.942 454.648 243.633 455.607 243.206 456.592 242.662 457.577 242.117 458.577 241.56 459.593 240.99 460.608 240.42 461.651 239.894 462.721 239.411 463.792 238.928 464.884 238.597 465.996 238.417 467.109 238.237 468.249 238.266 469.415 238.503 470.582 238.741 471.765 239.293 472.964 240.158 474.381 241.181 475.455 242.352 476.184 243.671 476.913 244.991 477.329 246.392 477.431 247.875 477.534 249.358 477.327 250.867 476.812 252.402 476.297 253.937 475.517 255.428 474.471 256.877 473.741 257.889 472.978 258.766 472.183 259.506 471.388 260.247 470.622 260.866 469.884 261.364 469.146 261.862 468.479 262.245 467.882 262.513 467.286 262.782 466.83 262.938 466.514 262.982 466.198 263.026 465.864 262.988 465.515 262.865 465.165 262.743 464.748 262.508 464.265 262.159 463.923 261.912 463.65 261.691 463.446 261.497 463.243 261.303 463.094 261.125 462.999 260.961 462.903 260.798 462.862 260.65 462.875 260.517 462.888 260.384 462.939 260.255 463.029 260.131 463.187 259.913 463.541 259.701 464.092 259.494 464.644 259.288 465.3 258.986 466.061 258.588 466.822 258.19 467.656 257.649 468.564 256.966 469.471 256.282 470.341 255.364 471.172 254.212 471.801 253.34 472.261 252.457 472.549 251.564 472.838 250.672 472.957 249.81 472.905 248.979 472.853 248.148 472.617 247.368 472.196 246.638 471.776 245.908 471.168 245.257 470.374 244.684 469.517 244.065 468.645 243.732 467.756 243.683 466.868 243.634 465.964 243.763 465.043 244.07 464.123 244.377 463.177 244.802 462.206 245.344 461.234 245.887 460.241 246.443 459.226 247.013 458.21 247.583 457.169 248.099 456.102 248.56 455.035 249.022 453.944 249.336 452.829 249.503 451.714 249.669 450.573 249.634 449.407 249.396 448.24 249.158 447.042 248.595 445.811 247.707 444.55 246.797 443.59 245.756 442.933 244.582 442.275 243.409 441.907 242.172 441.827 240.872 441.747 239.571 441.939 238.229 442.404 236.847 442.868 235.465 443.572 234.12 444.516 232.812Z" fill-rule="evenodd"/><text fill="#000000" fill-opacity="0" font-family="Arial,Arial_MSFontService,sans-serif" font-size="35.3361" x="441.809" y="258.583">S</text><g clip-path="url(#clip19)" filter="url(#fx2)" transform="translate(460 186)"><g><path d="M7.97016 22.6859 27.3953 5.51291C27.5104 5.41113 27.6402 5.34769 27.7846 5.32256 27.929 5.29743 28.0908 5.321 28.2701 5.39325 28.4493 5.46552 28.6455 5.59324 28.8587 5.77644 29.072 5.95964 29.2994 6.18793 29.5411 6.46133 29.7828 6.73471 29.9783 6.98486 30.1276 7.21174 30.277 7.43863 30.3733 7.64185 30.4167 7.8214 30.4601 8.00095 30.4604 8.16085 30.4178 8.30108 30.3751 8.44132 30.2963 8.56232 30.1811 8.66409L22.3247 15.6096 43.7337 39.8263C43.8355 39.9414 43.8958 40.0676 43.9145 40.2048 43.9333 40.342 43.893 40.4994 43.7936 40.677 43.6943 40.8545 43.5418 41.0662 43.3362 41.3121 43.1305 41.558 42.8479 41.8399 42.4882 42.1579 42.1428 42.4632 41.8319 42.706 41.5555 42.8863 41.2791 43.0666 41.0467 43.1951 40.8583 43.272 40.6699 43.3488 40.5087 43.3695 40.3748 43.3341 40.241 43.2986 40.1231 43.2233 40.0214 43.1082L18.6124 18.8916 10.756 25.8371C10.6409 25.9388 10.5111 26.0023 10.3667 26.0274 10.2223 26.0525 10.0673 26.0294 9.90157 25.958 9.73589 25.8866 9.54602 25.766 9.33196 25.5964 9.11789 25.4267 8.89001 25.2052 8.64832 24.9318 8.40663 24.6584 8.21153 24.4015 8.06306 24.1611 7.91459 23.9206 7.81188 23.7102 7.75495 23.5298 7.69802 23.3494 7.69088 23.1891 7.73352 23.0489 7.77617 22.9087 7.85505 22.7877 7.97016 22.6859Z" fill-rule="evenodd"/></g></g><path d="M466.086 208.014 485.511 190.841C485.627 190.739 485.756 190.676 485.901 190.651 486.045 190.626 486.207 190.649 486.386 190.722 486.565 190.794 486.762 190.922 486.975 191.105 487.188 191.288 487.416 191.516 487.657 191.79 487.899 192.063 488.094 192.313 488.244 192.54 488.393 192.767 488.489 192.97 488.533 193.15 488.576 193.329 488.577 193.489 488.534 193.629 488.491 193.77 488.412 193.891 488.297 193.992L480.441 200.938 501.85 225.155C501.952 225.27 502.012 225.396 502.031 225.533 502.049 225.67 502.009 225.828 501.91 226.005 501.81 226.183 501.658 226.395 501.452 226.64 501.247 226.886 500.964 227.168 500.604 227.486 500.259 227.792 499.948 228.034 499.672 228.215 499.395 228.395 499.163 228.523 498.974 228.6 498.786 228.677 498.625 228.698 498.491 228.662 498.357 228.627 498.239 228.552 498.138 228.437L476.729 204.22 468.872 211.165C468.757 211.267 468.627 211.331 468.483 211.356 468.338 211.381 468.183 211.358 468.018 211.286 467.852 211.215 467.662 211.094 467.448 210.925 467.234 210.755 467.006 210.534 466.764 210.26 466.523 209.987 466.328 209.73 466.179 209.489 466.031 209.249 465.928 209.039 465.871 208.858 465.814 208.678 465.807 208.517 465.85 208.377 465.892 208.237 465.971 208.116 466.086 208.014Z" fill-rule="evenodd"/><text fill="#000000" fill-opacity="0" font-family="Arial,Arial_MSFontService,sans-serif" font-size="38.038" x="465.822" y="223.924">T</text><g clip-path="url(#clip20)" filter="url(#fx3)" transform="translate(502 159)"><g><path d="M18.2136 16.8551 21.8072 36.1847 33.0788 29.7806 18.2387 16.8409ZM15.8307 12.3112C16.3651 12.0076 16.8147 11.7687 17.1796 11.5945 17.5445 11.4203 17.8545 11.305 18.1095 11.2484 18.3646 11.1919 18.5861 11.193 18.7742 11.2519 18.9622 11.3107 19.1418 11.413 19.313 11.5587L47.2899 35.49C47.6322 35.7814 47.8716 36.0375 48.008 36.2582 48.1445 36.4789 48.1791 36.6856 48.1119 36.8784 48.0447 37.0712 47.8662 37.2721 47.5762 37.481 47.2863 37.6899 46.8825 37.9414 46.3648 38.2356 45.8472 38.5297 45.4268 38.752 45.1036 38.9024 44.7805 39.0529 44.5229 39.144 44.3311 39.1757 44.1393 39.2074 43.9773 39.1945 43.8452 39.137 43.7132 39.0795 43.571 38.9945 43.4189 38.8822L36.1556 32.5718 22.6798 40.2282 24.4507 49.5267C24.486 49.7055 24.4927 49.8728 24.4709 50.0288 24.4491 50.1848 24.3802 50.3454 24.2642 50.5107 24.1483 50.676 23.9537 50.8583 23.6805 51.0577 23.4072 51.2572 23.0368 51.4897 22.5692 51.7554 22.085 52.0305 21.6765 52.235 21.3439 52.3687 21.0112 52.5025 20.7491 52.5465 20.5574 52.5008 20.3658 52.4551 20.2101 52.3171 20.0903 52.0869 19.9706 51.8568 19.8732 51.52 19.798 51.0768L13.5627 14.7926C13.5252 14.571 13.5274 14.3709 13.5696 14.1923 13.6117 14.0138 13.7182 13.8318 13.8889 13.6464 14.0597 13.461 14.3008 13.2633 14.6122 13.0533 14.9236 12.8432 15.3298 12.5959 15.8307 12.3112Z" fill-rule="evenodd"/></g></g><path d="M518.33 175.183 521.923 194.513 533.195 188.109 518.355 175.169ZM515.947 170.64C516.481 170.336 516.931 170.097 517.296 169.923 517.661 169.749 517.971 169.633 518.226 169.577 518.481 169.52 518.702 169.521 518.89 169.58 519.078 169.639 519.258 169.741 519.429 169.887L547.406 193.818C547.748 194.11 547.988 194.366 548.124 194.587 548.261 194.807 548.295 195.014 548.228 195.207 548.161 195.4 547.982 195.6 547.692 195.809 547.402 196.018 546.999 196.27 546.481 196.564 545.963 196.858 545.543 197.08 545.22 197.231 544.897 197.381 544.639 197.472 544.447 197.504 544.255 197.536 544.093 197.523 543.961 197.465 543.829 197.408 543.687 197.323 543.535 197.211L536.272 190.9 522.796 198.557 524.567 207.855C524.602 208.034 524.609 208.201 524.587 208.357 524.565 208.513 524.496 208.674 524.38 208.839 524.264 209.004 524.07 209.187 523.797 209.386 523.523 209.585 523.153 209.818 522.685 210.084 522.201 210.359 521.793 210.563 521.46 210.697 521.127 210.831 520.865 210.875 520.674 210.829 520.482 210.783 520.326 210.645 520.206 210.415 520.087 210.185 519.989 209.848 519.914 209.405L513.679 173.121C513.641 172.899 513.644 172.699 513.686 172.521 513.728 172.342 513.834 172.16 514.005 171.975 514.176 171.789 514.417 171.592 514.728 171.382 515.04 171.172 515.446 170.924 515.947 170.64Z" fill-rule="evenodd"/><text fill="#000000" fill-opacity="0" font-family="Arial,Arial_MSFontService,sans-serif" font-size="41.3114" x="513.652" y="205.683">A</text><g clip-path="url(#clip21)" filter="url(#fx4)" transform="translate(545 133)"><g><path d="M11.9637 19.7591 14.8947 18.9431C15.4957 18.7758 16.0372 18.6849 16.5191 18.6703 17.001 18.6558 17.4445 18.7217 17.8495 18.8681 18.2546 19.0145 18.6214 19.2414 18.9499 19.5486 19.2784 19.8559 19.5967 20.2358 19.9049 20.6882L37.4131 43.8342 37.5519 43.7956 41.0205 14.8995C41.0727 14.2869 41.1669 13.7523 41.3032 13.2957 41.4394 12.8391 41.6211 12.4546 41.8481 12.1422 42.0751 11.8298 42.353 11.573 42.6817 11.3719 43.0104 11.1707 43.4098 11.0047 43.8799 10.8738L46.9531 10.0183C47.2352 9.93973 47.5148 9.90677 47.7916 9.91941 48.0685 9.93204 48.3207 10.0014 48.5483 10.1274 48.7759 10.2534 48.9834 10.4349 49.1708 10.6718 49.3583 10.9087 49.5061 11.2214 49.6142 11.61L58.8085 44.6362C58.8498 44.7843 58.8477 44.9244 58.8024 45.0566 58.7572 45.1888 58.6482 45.3138 58.4756 45.4317 58.303 45.5495 58.0754 45.6727 57.793 45.8011 57.5106 45.9296 57.1311 46.0602 56.6547 46.1928 56.2164 46.3148 55.8337 46.3964 55.5064 46.4377 55.1791 46.479 54.9159 46.4924 54.7168 46.4781 54.5176 46.4638 54.3645 46.4117 54.2574 46.3219 54.1504 46.2321 54.0762 46.1132 54.035 45.9652L45.3275 14.6873 45.2719 14.7028 41.3627 49.6426C41.3432 49.7875 41.2955 49.9204 41.2195 50.0413 41.1435 50.1621 41.0173 50.282 40.8411 50.4008 40.6649 50.5197 40.4465 50.6303 40.1859 50.7327 39.9254 50.8352 39.6101 50.9379 39.24 51.0409 38.8515 51.1491 38.5133 51.2233 38.2254 51.2636 37.9376 51.3038 37.6922 51.3173 37.4891 51.3041 37.2861 51.2908 37.1208 51.2521 36.9933 51.1879 36.8658 51.1237 36.768 51.0413 36.7001 50.9406L15.8536 22.8927 15.8258 22.9004 24.5334 54.1782C24.5746 54.3262 24.5725 54.4664 24.5273 54.5986 24.482 54.7308 24.373 54.8558 24.2004 54.9737 24.0278 55.0915 23.7955 55.216 23.5035 55.3471 23.2115 55.4782 22.8273 55.6101 22.3509 55.7427 21.8936 55.8701 21.506 55.953 21.1883 55.9916 20.8706 56.0303 20.6121 56.0424 20.413 56.0281 20.2138 56.0137 20.0655 55.9603 19.9679 55.8679 19.8704 55.7754 19.801 55.6552 19.7598 55.5072L10.5655 22.4809C10.3492 21.7038 10.4013 21.0912 10.7218 20.6431 11.0424 20.195 11.4563 19.9003 11.9637 19.7591Z" fill-rule="evenodd"/></g></g><path d="M555.08 152.087 558.011 151.271C558.612 151.104 559.153 151.013 559.635 150.999 560.117 150.984 560.561 151.05 560.966 151.196 561.371 151.343 561.738 151.57 562.066 151.877 562.395 152.184 562.713 152.564 563.021 153.017L580.529 176.163 580.668 176.124 584.137 147.228C584.189 146.615 584.283 146.081 584.419 145.624 584.556 145.167 584.737 144.783 584.964 144.471 585.191 144.158 585.469 143.901 585.798 143.7 586.127 143.499 586.526 143.333 586.996 143.202L590.069 142.347C590.351 142.268 590.631 142.235 590.908 142.248 591.185 142.26 591.437 142.33 591.664 142.456 591.892 142.582 592.1 142.763 592.287 143 592.474 143.237 592.622 143.55 592.73 143.938L601.925 176.965C601.966 177.113 601.964 177.253 601.919 177.385 601.873 177.517 601.764 177.642 601.592 177.76 601.419 177.878 601.192 178.001 600.909 178.129 600.627 178.258 600.247 178.388 599.771 178.521 599.333 178.643 598.95 178.725 598.623 178.766 598.295 178.807 598.032 178.821 597.833 178.806 597.634 178.792 597.481 178.74 597.374 178.65 597.267 178.56 597.192 178.441 597.151 178.293L588.444 147.016 588.388 147.031 584.479 181.971C584.459 182.116 584.412 182.249 584.336 182.37 584.26 182.49 584.134 182.61 583.957 182.729 583.781 182.848 583.563 182.959 583.302 183.061 583.042 183.163 582.726 183.266 582.356 183.369 581.968 183.477 581.629 183.552 581.342 183.592 581.054 183.632 580.808 183.646 580.605 183.632 580.402 183.619 580.237 183.58 580.109 183.516 579.982 183.452 579.884 183.37 579.816 183.269L558.97 155.221 558.942 155.229 567.65 186.507C567.691 186.655 567.689 186.795 567.643 186.927 567.598 187.059 567.489 187.184 567.317 187.302 567.144 187.42 566.912 187.544 566.62 187.675 566.328 187.807 565.944 187.938 565.467 188.071 565.01 188.198 564.622 188.281 564.304 188.32 563.987 188.359 563.728 188.371 563.529 188.356 563.33 188.342 563.182 188.289 563.084 188.196 562.987 188.104 562.917 187.983 562.876 187.835L553.682 154.809C553.465 154.032 553.517 153.419 553.838 152.971 554.159 152.523 554.573 152.229 555.08 152.087Z" fill-rule="evenodd"/><text fill="#000000" fill-opacity="0" font-family="Arial,Arial_MSFontService,sans-serif" font-size="46.1171" x="553.551" y="182.598">M</text><g clip-path="url(#clip22)" filter="url(#fx5)" transform="translate(606 129)"><g><path d="M22.4247 14.6406 22.4413 29.5922 26.9067 29.5873C28.4047 29.5856 29.6481 29.3922 30.6367 29.007 31.6254 28.6218 32.4555 28.0879 33.1269 27.4053 33.7984 26.7228 34.3064 25.906 34.651 24.9549 34.9957 24.0038 35.1674 22.9714 35.1662 21.8574 35.1645 20.3402 34.8798 19.0729 34.3121 18.0556 33.7444 17.0384 33.0425 16.2805 32.2065 15.7821 31.3705 15.2837 30.5059 14.9677 29.6127 14.8343 28.7195 14.7008 27.8504 14.6346 27.0053 14.6355ZM19.4241 10.5531 27.4041 10.5443C28.2107 10.5433 28.9838 10.5761 29.7233 10.6425 30.4628 10.7089 31.3368 10.852 32.3453 11.0717 33.3539 11.2915 34.3819 11.7032 35.4292 12.3071 36.4766 12.9109 37.3657 13.6541 38.0965 14.5368 38.8273 15.4194 39.3902 16.4415 39.7852 17.603 40.1802 18.7645 40.3785 20.0463 40.3801 21.4483 40.3821 23.3113 40.0767 24.9921 39.4638 26.4908 38.8509 27.9896 37.9736 29.2677 36.8321 30.3253 35.6905 31.3829 34.2894 32.2007 32.6287 32.7787 30.9681 33.3567 28.9854 33.647 26.6807 33.6496L22.4458 33.6543 22.4607 47.0791C22.4609 47.2327 22.4178 47.3672 22.3316 47.4825 22.2453 47.5978 22.1109 47.6892 21.9285 47.7566 21.7462 47.8241 21.4966 47.882 21.1797 47.9303 20.8629 47.9787 20.4644 48.0031 19.9842 48.0037 19.5041 48.0042 19.1055 47.9806 18.7886 47.933 18.4716 47.8853 18.2171 47.828 18.025 47.761 17.8329 47.694 17.6983 47.6029 17.6214 47.4877 17.5444 47.3726 17.5058 47.2382 17.5057 47.0846L17.4675 12.6871C17.4666 11.9189 17.6677 11.3713 18.0706 11.0444 18.4736 10.7174 18.9248 10.5537 19.4241 10.5531Z" fill-rule="evenodd"/></g></g><path d="M626.541 142.969 626.557 157.921 631.023 157.916C632.521 157.914 633.764 157.72 634.753 157.335 635.742 156.95 636.572 156.416 637.243 155.734 637.915 155.051 638.423 154.234 638.767 153.283 639.112 152.332 639.284 151.3 639.282 150.186 639.281 148.668 638.996 147.401 638.428 146.384 637.861 145.367 637.159 144.609 636.323 144.11 635.487 143.612 634.622 143.296 633.729 143.163 632.836 143.029 631.967 142.963 631.121 142.964ZM623.54 138.881 631.52 138.873C632.327 138.872 633.1 138.904 633.839 138.971 634.579 139.037 635.453 139.18 636.462 139.4 637.47 139.62 638.498 140.032 639.545 140.635 640.593 141.239 641.482 141.982 642.213 142.865 642.943 143.748 643.506 144.77 643.901 145.931 644.296 147.093 644.495 148.375 644.496 149.777 644.498 151.64 644.193 153.32 643.58 154.819 642.967 156.318 642.09 157.596 640.948 158.654 639.807 159.711 638.406 160.529 636.745 161.107 635.084 161.685 633.102 161.975 630.797 161.978L626.562 161.983 626.577 175.407C626.577 175.561 626.534 175.695 626.448 175.811 626.361 175.926 626.227 176.018 626.045 176.085 625.862 176.152 625.613 176.21 625.296 176.259 624.979 176.307 624.581 176.331 624.1 176.332 623.62 176.333 623.222 176.309 622.905 176.261 622.588 176.214 622.333 176.156 622.141 176.089 621.949 176.022 621.814 175.931 621.738 175.816 621.661 175.701 621.622 175.566 621.622 175.413L621.584 141.015C621.583 140.247 621.784 139.7 622.187 139.373 622.59 139.046 623.041 138.882 623.54 138.881Z" fill-rule="evenodd"/><text fill="#000000" fill-opacity="0" font-family="Arial,Arial_MSFontService,sans-serif" font-size="37.4595" x="621.584" y="171.65">P</text><g clip-path="url(#clip23)" filter="url(#fx6)" transform="translate(659 155)"><g><path d="M7.01071 8.23622 18.7194 11.0497C18.8688 11.0856 18.9975 11.1461 19.1054 11.2313 19.2133 11.3165 19.2902 11.4485 19.3361 11.6275 19.382 11.8064 19.3991 12.0229 19.3875 12.2768 19.3758 12.5308 19.3274 12.8352 19.2421 13.19 19.0671 13.9183 18.8619 14.4023 18.6266 14.6421 18.3912 14.8818 18.1148 14.9635 17.7973 14.8872L6.08859 12.0738C5.75247 11.993 5.53513 11.7877 5.43661 11.4579 5.3381 11.128 5.37411 10.6083 5.54462 9.89868 5.71512 9.18906 5.91809 8.71439 6.15347 8.47466 6.38882 8.23492 6.67456 8.15546 7.01071 8.23622Z" fill-rule="evenodd"/></g></g><path d="M664.127 162.565 675.836 165.378C675.985 165.414 676.114 165.474 676.222 165.56 676.329 165.645 676.406 165.777 676.452 165.956 676.498 166.135 676.515 166.351 676.504 166.605 676.492 166.859 676.444 167.164 676.358 167.518 676.183 168.247 675.978 168.731 675.743 168.97 675.507 169.21 675.231 169.292 674.914 169.216L663.205 166.402C662.869 166.321 662.651 166.116 662.553 165.786 662.454 165.456 662.49 164.937 662.661 164.227 662.831 163.517 663.034 163.043 663.27 162.803 663.505 162.563 663.791 162.484 664.127 162.565Z" fill-rule="evenodd"/><text fill="#000000" fill-opacity="0" font-family="Arial,Arial_MSFontService,sans-serif" font-size="6.70915" x="662.499" y="168.405">-</text><path d="M536.5 295 528.227 297.942 528.227 292.058ZM530.494 280.504 526.726 288.435 522.566 284.274ZM516 274.5 518.942 282.773 513.058 282.773ZM501.504 280.504 509.435 284.274 505.274 288.435ZM495.5 295 503.773 292.058 503.773 297.942ZM501.504 309.494 505.274 301.566 509.435 305.726ZM516 315.5 513.058 307.227 518.942 307.227ZM530.494 309.494 522.566 305.726 526.726 301.566ZM505.75 295C505.75 289.339 510.339 284.75 516 284.75 521.661 284.75 526.25 289.339 526.25 295 526.25 300.661 521.661 305.25 516 305.25 510.339 305.25 505.75 300.661 505.75 295Z" stroke="#172C51" stroke-width="1.33333" stroke-miterlimit="8" fill="#4472C4" fill-rule="evenodd"/><path d="M593.5 256 585.227 258.942 585.227 253.058ZM587.494 241.504 583.726 249.435 579.566 245.274ZM573 235.5 575.942 243.773 570.058 243.773ZM558.504 241.504 566.435 245.274 562.274 249.435ZM552.5 256 560.773 253.058 560.773 258.942ZM558.504 270.494 562.274 262.566 566.435 266.726ZM573 276.5 570.058 268.227 575.942 268.227ZM587.494 270.494 579.566 266.726 583.726 262.566ZM562.75 256C562.75 250.339 567.339 245.75 573 245.75 578.661 245.75 583.25 250.339 583.25 256 583.25 261.661 578.661 266.25 573 266.25 567.339 266.25 562.75 261.661 562.75 256Z" stroke="#172C51" stroke-width="1.33333" stroke-miterlimit="8" fill="#4472C4" fill-rule="evenodd"/><path d="M659.5 235 651.429 237.942 651.429 232.058ZM653.641 220.504 649.964 228.435 645.905 224.274ZM639.5 214.5 642.37 222.773 636.63 222.773ZM625.357 220.504 633.095 224.274 629.036 228.435ZM619.5 235 627.571 232.058 627.571 237.942ZM625.357 249.494 629.036 241.566 633.095 245.726ZM639.5 255.5 636.63 247.227 642.37 247.227ZM653.641 249.494 645.905 245.726 649.964 241.566ZM629.5 235C629.5 229.339 633.977 224.75 639.5 224.75 645.023 224.75 649.5 229.339 649.5 235 649.5 240.661 645.023 245.25 639.5 245.25 633.977 245.25 629.5 240.661 629.5 235Z" stroke="#172C51" stroke-width="1.33333" stroke-miterlimit="8" fill="#4472C4" fill-rule="evenodd"/><path d="M733.5 435.5 725.227 438.37 725.227 432.63ZM727.494 421.357 723.726 429.095 719.566 425.036ZM713 415.5 715.942 423.571 710.058 423.571ZM698.504 421.357 706.435 425.036 702.274 429.095ZM692.5 435.5 700.773 432.63 700.773 438.37ZM698.504 449.641 702.274 441.905 706.435 445.964ZM713 455.5 710.058 447.429 715.942 447.429ZM727.494 449.641 719.566 445.964 723.726 441.905ZM702.75 435.5C702.75 429.977 707.339 425.5 713 425.5 718.661 425.5 723.25 429.977 723.25 435.5 723.25 441.023 718.661 445.5 713 445.5 707.339 445.5 702.75 441.023 702.75 435.5Z" stroke="#172C51" stroke-width="1.33333" stroke-miterlimit="8" fill="#4472C4" fill-rule="evenodd"/><path d="M665.5 476 657.227 478.942 657.227 473.058ZM659.494 461.504 655.726 469.435 651.566 465.274ZM645 455.5 647.942 463.773 642.058 463.773ZM630.504 461.504 638.435 465.274 634.274 469.435ZM624.5 476 632.773 473.058 632.773 478.942ZM630.504 490.494 634.274 482.566 638.435 486.726ZM645 496.5 642.058 488.227 647.942 488.227ZM659.494 490.494 651.566 486.726 655.726 482.566ZM634.75 476C634.75 470.339 639.339 465.75 645 465.75 650.661 465.75 655.25 470.339 655.25 476 655.25 481.661 650.661 486.25 645 486.25 639.339 486.25 634.75 481.661 634.75 476Z" stroke="#172C51" stroke-width="1.33333" stroke-miterlimit="8" fill="#4472C4" fill-rule="evenodd"/><g clip-path="url(#clip24)" filter="url(#fx7)" transform="translate(576 548)"><g><path d="M7.1105 8.09735 18.6528 11.5304C18.8 11.5742 18.9253 11.6415 19.0285 11.7323 19.1317 11.8232 19.2015 11.9591 19.2378 12.1402 19.2741 12.3214 19.2797 12.5384 19.2545 12.7914 19.2294 13.0444 19.1648 13.3458 19.0607 13.6956 18.8472 14.4135 18.6165 14.8859 18.3687 15.1127 18.1209 15.3396 17.8405 15.4065 17.5276 15.3134L5.98531 11.8803C5.65396 11.7818 5.44787 11.5652 5.36707 11.2306 5.28625 10.896 5.34988 10.3789 5.55795 9.67938 5.76601 8.97983 5.99394 8.51665 6.24175 8.28979 6.48956 8.06294 6.77914 7.99881 7.1105 8.09735Z" fill-rule="evenodd"/></g></g><path d="M581.227 555.426 592.769 558.859C592.916 558.903 593.041 558.97 593.145 559.061 593.248 559.151 593.318 559.287 593.354 559.469 593.39 559.65 593.396 559.867 593.371 560.12 593.346 560.373 593.281 560.674 593.177 561.024 592.963 561.742 592.733 562.214 592.485 562.441 592.237 562.668 591.957 562.735 591.644 562.642L580.102 559.209C579.77 559.11 579.564 558.894 579.483 558.559 579.402 558.224 579.466 557.707 579.674 557.008 579.882 556.308 580.11 555.845 580.358 555.618 580.606 555.391 580.895 555.327 581.227 555.426Z" fill-rule="evenodd"/><text fill="#000000" fill-opacity="0" font-family="Arial,Arial_MSFontService,sans-serif" font-size="7.30145" x="579.449" y="561.77">-</text><g clip-path="url(#clip25)" filter="url(#fx8)" transform="translate(595 534)"><g><path d="M29.1362 8.02376C29.9612 8.06157 30.7877 8.17154 31.6157 8.3537 32.4436 8.53583 33.2215 8.76375 33.9491 9.03743 34.6768 9.31111 35.3215 9.60983 35.8835 9.93359 36.4454 10.2574 36.8134 10.5145 36.9873 10.7052 37.1612 10.8958 37.2745 11.0452 37.3272 11.1533 37.3799 11.2615 37.4217 11.398 37.4526 11.5628 37.4835 11.7276 37.5033 11.9256 37.5119 12.1567 37.5205 12.3878 37.5165 12.6857 37.4998 13.0502 37.484 13.3955 37.4555 13.7018 37.4144 13.9691 37.3733 14.2364 37.3198 14.4598 37.2539 14.6395 37.188 14.8191 37.1003 14.9496 36.9908 15.0311 36.8813 15.1126 36.7595 15.1503 36.6252 15.1442 36.4141 15.1345 36.0893 14.985 35.6508 14.6958 35.2122 14.4065 34.6745 14.079 34.0376 13.7134 33.4007 13.3477 32.6425 13.0054 31.7631 12.6863 30.8838 12.3672 29.8877 12.1822 28.7749 12.1311 27.7389 12.0836 26.8308 12.1814 26.0506 12.4244 25.2704 12.6674 24.6204 13.0077 24.1005 13.4453 23.5805 13.8829 23.1813 14.4125 22.9029 15.0342 22.6245 15.6559 22.469 16.3217 22.4364 17.0316 22.389 18.0676 22.5879 18.9707 23.0332 19.741 23.4786 20.5112 24.0862 21.2023 24.856 21.8144 25.6258 22.4265 26.5081 22.9956 27.503 23.5219 28.4978 24.0481 29.5116 24.58 30.5444 25.1176 31.5772 25.6552 32.5886 26.2399 33.5786 26.8717 34.5686 27.5035 35.4435 28.2357 36.2032 29.0684 36.9629 29.9011 37.5625 30.8707 38.002 31.9771 38.4416 33.0835 38.6275 34.3753 38.5598 35.8526 38.4798 37.5985 38.0872 39.1378 37.382 40.4705 36.6769 41.8032 35.7318 42.9183 34.5467 43.8156 33.3616 44.713 31.9858 45.3661 30.4194 45.7749 28.853 46.1838 27.1776 46.3473 25.3934 46.2655 24.1463 46.2084 22.9952 46.0499 21.9401 45.79 20.885 45.5302 19.9472 45.2276 19.1267 44.8824 18.3062 44.5372 17.6204 44.1885 17.0694 43.8364 16.5184 43.4843 16.1378 43.1881 15.9277 42.9478 15.7176 42.7074 15.568 42.4073 15.4787 42.0476 15.3895 41.6878 15.3585 41.2105 15.3857 40.6158 15.4051 40.1937 15.4403 39.8445 15.4915 39.568 15.5426 39.2916 15.6105 39.0688 15.6951 38.8996 15.7798 38.7305 15.8812 38.615 15.9994 38.5531 16.1176 38.4912 16.2534 38.4638 16.4069 38.4708 16.6755 38.4832 17.0469 38.6636 17.5212 39.0122 17.9955 39.3608 18.6076 39.7445 19.3574 40.1634 20.1072 40.5823 21.0164 40.9845 22.0851 41.3699 23.1536 41.7553 24.3978 41.9806 25.8175 42.0457 26.8919 42.0949 27.8818 41.9961 28.7871 41.7492 29.6924 41.5023 30.4785 41.1298 31.1454 40.6316 31.8123 40.1335 32.3361 39.5086 32.7166 38.757 33.0971 38.0054 33.3098 37.1404 33.3546 36.162 33.403 35.1068 33.2045 34.194 32.7592 33.4238 32.3138 32.6536 31.7108 31.9675 30.9502 31.3654 30.1895 30.7634 29.3163 30.2043 28.3306 29.688 27.3449 29.1718 26.3357 28.6449 25.3029 28.1073 24.2701 27.5697 23.2685 26.9807 22.2982 26.3402 21.3278 25.6997 20.4677 24.9585 19.718 24.1167 18.9684 23.2748 18.3738 22.3007 17.9342 21.1943 17.4947 20.0879 17.3097 18.7768 17.3791 17.2612 17.4504 15.7071 17.7969 14.334 18.4187 13.1416 19.0405 11.9493 19.874 10.9637 20.919 10.1849 21.9641 9.40609 23.192 8.83272 24.6027 8.46481 26.0135 8.09689 27.5246 7.94987 29.1362 8.02376Z" fill-rule="evenodd"/></g></g><path d="M622.252 541.352C623.077 541.39 623.904 541.5 624.732 541.682 625.56 541.864 626.338 542.092 627.065 542.366 627.793 542.639 628.438 542.938 629 543.262 629.562 543.586 629.93 543.843 630.103 544.034 630.277 544.224 630.391 544.374 630.443 544.482 630.496 544.59 630.538 544.726 630.569 544.891 630.6 545.056 630.619 545.254 630.628 545.485 630.637 545.716 630.633 546.014 630.616 546.379 630.6 546.724 630.572 547.03 630.531 547.297 630.49 547.565 630.436 547.788 630.37 547.968 630.304 548.147 630.216 548.278 630.107 548.359 629.998 548.441 629.876 548.479 629.741 548.473 629.53 548.463 629.206 548.313 628.767 548.024 628.328 547.735 627.791 547.407 627.154 547.042 626.517 546.676 625.759 546.334 624.879 546.015 624 545.696 623.004 545.51 621.891 545.459 620.855 545.412 619.947 545.51 619.167 545.753 618.387 545.996 617.737 546.336 617.217 546.774 616.697 547.211 616.297 547.741 616.019 548.363 615.741 548.984 615.585 549.65 615.553 550.36 615.505 551.396 615.704 552.299 616.149 553.069 616.595 553.84 617.202 554.531 617.972 555.143 618.742 555.755 619.624 556.324 620.619 556.85 621.614 557.376 622.628 557.908 623.661 558.446 624.693 558.984 625.705 559.568 626.695 560.2 627.685 560.832 628.56 561.564 629.319 562.397 630.079 563.229 630.679 564.199 631.118 565.305 631.558 566.412 631.744 567.704 631.676 569.181 631.596 570.927 631.203 572.466 630.498 573.799 629.793 575.132 628.848 576.247 627.663 577.144 626.478 578.041 625.102 578.694 623.536 579.103 621.969 579.512 620.294 579.676 618.51 579.594 617.263 579.537 616.111 579.378 615.056 579.118 614.001 578.859 613.063 578.556 612.243 578.211 611.422 577.865 610.737 577.517 610.186 577.165 609.635 576.813 609.254 576.516 609.044 576.276 608.834 576.036 608.684 575.736 608.595 575.376 608.506 575.016 608.475 574.539 608.502 573.944 608.521 573.522 608.557 573.173 608.608 572.896 608.659 572.62 608.727 572.397 608.811 572.228 608.896 572.059 608.997 571.943 609.116 571.881 609.234 571.82 609.37 571.792 609.523 571.799 609.792 571.812 610.163 571.992 610.637 572.341 611.112 572.689 611.724 573.073 612.474 573.492 613.223 573.911 614.133 574.313 615.201 574.698 616.27 575.084 617.514 575.309 618.934 575.374 620.008 575.423 620.998 575.324 621.903 575.078 622.809 574.831 623.595 574.458 624.262 573.96 624.929 573.462 625.452 572.837 625.833 572.085 626.213 571.334 626.426 570.469 626.471 569.49 626.519 568.435 626.321 567.522 625.875 566.752 625.43 565.982 624.827 565.296 624.066 564.694 623.306 564.092 622.432 563.533 621.447 563.016 620.461 562.5 619.452 561.973 618.419 561.436 617.386 560.898 616.385 560.309 615.414 559.669 614.444 559.028 613.584 558.287 612.834 557.445 612.085 556.603 611.49 555.629 611.05 554.523 610.611 553.416 610.426 552.105 610.495 550.59 610.567 549.035 610.913 547.662 611.535 546.47 612.157 545.278 612.99 544.292 614.035 543.513 615.08 542.734 616.308 542.161 617.719 541.793 619.13 541.425 620.641 541.278 622.252 541.352Z" fill-rule="evenodd"/><text fill="#000000" fill-opacity="0" font-family="Arial,Arial_MSFontService,sans-serif" font-size="38.2808" x="608.492" y="574.829">S</text><g clip-path="url(#clip26)" filter="url(#fx9)" transform="translate(640 527)"><g><path d="M5.33926 15.3809 30.8577 10.7921C31.0089 10.7649 31.1528 10.778 31.2892 10.8315 31.4257 10.8851 31.5518 10.9892 31.6674 11.1441 31.7831 11.2989 31.8844 11.5099 31.9715 11.7772 32.0586 12.0445 32.1345 12.3577 32.199 12.7169 32.2636 13.076 32.3008 13.3913 32.3106 13.6628 32.3204 13.9342 32.2972 14.1579 32.241 14.3339 32.1848 14.5098 32.1021 14.6467 31.9928 14.7444 31.8836 14.8421 31.7533 14.9045 31.6021 14.9317L21.2813 16.7876 27.002 48.6006C27.0292 48.7518 27.0152 48.8909 26.96 49.0179 26.9048 49.145 26.7886 49.2585 26.6115 49.3587 26.4343 49.4588 26.1941 49.5606 25.8907 49.6639 25.5873 49.7673 25.1993 49.8614 24.7267 49.9464 24.2731 50.028 23.8813 50.074 23.5515 50.0846 23.2216 50.0951 22.9563 50.0843 22.7553 50.0521 22.5544 50.0199 22.4059 49.9539 22.3099 49.8541 22.2139 49.7543 22.1523 49.6288 22.1252 49.4776L16.4045 17.6646 6.08366 19.5205C5.93245 19.5477 5.7886 19.5345 5.65216 19.481 5.51569 19.4275 5.3952 19.3272 5.2907 19.1801 5.18619 19.0331 5.08652 18.8315 4.99167 18.5753 4.89684 18.3192 4.81711 18.0115 4.75253 17.6524 4.68796 17.2932 4.65463 16.9724 4.65262 16.6898 4.65059 16.4072 4.67209 16.174 4.7171 15.9903 4.76212 15.8066 4.83926 15.6659 4.94853 15.5682 5.0578 15.4705 5.18805 15.408 5.33926 15.3809Z" fill-rule="evenodd"/></g></g><path d="M643.455 541.709 668.974 537.12C669.125 537.093 669.269 537.106 669.405 537.16 669.542 537.213 669.668 537.318 669.784 537.472 669.899 537.627 670.001 537.838 670.088 538.106 670.175 538.373 670.251 538.686 670.315 539.045 670.38 539.404 670.417 539.72 670.427 539.991 670.437 540.263 670.413 540.486 670.357 540.662 670.301 540.838 670.218 540.975 670.109 541.073 670 541.17 669.87 541.233 669.718 541.26L659.397 543.116 665.118 574.929C665.145 575.08 665.131 575.219 665.076 575.346 665.021 575.473 664.905 575.587 664.728 575.687 664.551 575.787 664.31 575.889 664.007 575.992 663.703 576.096 663.315 576.19 662.843 576.275 662.389 576.356 661.997 576.402 661.668 576.413 661.338 576.423 661.072 576.413 660.872 576.38 660.671 576.348 660.522 576.282 660.426 576.182 660.33 576.083 660.269 575.957 660.241 575.806L654.521 543.993 644.2 545.849C644.049 545.876 643.905 545.863 643.768 545.809 643.632 545.756 643.511 545.656 643.407 545.508 643.302 545.361 643.203 545.16 643.108 544.904 643.013 544.648 642.933 544.34 642.869 543.981 642.804 543.622 642.771 543.301 642.769 543.018 642.767 542.736 642.788 542.502 642.833 542.319 642.878 542.135 642.955 541.994 643.065 541.897 643.174 541.799 643.304 541.736 643.455 541.709Z" fill-rule="evenodd"/><text fill="#000000" fill-opacity="0" font-family="Arial,Arial_MSFontService,sans-serif" font-size="39.3102" x="642.769" y="571.503">T</text><g clip-path="url(#clip27)" filter="url(#fx10)" transform="translate(675 519)"><g><path d="M21.8739 14.8837 22.9489 34.5151 34.9512 29.6155 21.9006 14.8728ZM20.0959 10.0708C20.6649 9.83855 21.1415 9.65953 21.5258 9.53375 21.9101 9.408 22.2324 9.33349 22.4926 9.31026 22.7528 9.28703 22.9723 9.31667 23.1512 9.39923 23.3301 9.48178 23.4951 9.60633 23.646 9.77289L48.309 37.1071C48.6109 37.4402 48.8153 37.7249 48.9222 37.9614 49.0291 38.1978 49.0368 38.4073 48.9453 38.5898 48.8539 38.7723 48.651 38.9485 48.3365 39.1184 48.0221 39.2882 47.5893 39.4857 47.0381 39.7107 46.4868 39.9357 46.0413 40.102 45.7015 40.2096 45.3616 40.3172 45.0945 40.3744 44.9002 40.3811 44.7059 40.3878 44.547 40.3542 44.4234 40.2802 44.2998 40.2062 44.1698 40.1036 44.0334 39.9726L37.6431 32.7796 23.2936 38.6373 23.8526 48.0864C23.8645 48.2682 23.8497 48.435 23.808 48.5869 23.7662 48.7388 23.6772 48.8892 23.541 49.0382 23.4047 49.1871 23.1883 49.3429 22.8916 49.5055 22.5949 49.6681 22.1977 49.851 21.6998 50.0543 21.1842 50.2647 20.7528 50.4149 20.4057 50.5048 20.0586 50.5946 19.793 50.6045 19.6088 50.5345 19.4246 50.4644 19.288 50.3076 19.1989 50.0639 19.1098 49.8202 19.0565 49.4738 19.0391 49.0245L17.5273 12.2396C17.5186 12.0149 17.5466 11.8168 17.6114 11.6452 17.6761 11.4735 17.8051 11.3067 17.9984 11.1449 18.1916 10.983 18.4561 10.818 18.792 10.6498 19.1278 10.4816 19.5625 10.2886 20.0959 10.0708Z" fill-rule="evenodd"/></g></g><path d="M694.99 533.212 696.065 552.843 708.067 547.944 695.017 533.201ZM693.212 528.399C693.781 528.167 694.258 527.988 694.642 527.862 695.026 527.736 695.349 527.662 695.609 527.639 695.869 527.615 696.089 527.645 696.267 527.728 696.446 527.81 696.611 527.935 696.762 528.101L721.425 555.435C721.727 555.769 721.932 556.053 722.038 556.29 722.145 556.526 722.153 556.736 722.062 556.918 721.97 557.101 721.767 557.277 721.453 557.447 721.138 557.617 720.705 557.814 720.154 558.039 719.603 558.264 719.157 558.43 718.818 558.538 718.478 558.646 718.211 558.703 718.016 558.709 717.822 558.716 717.663 558.682 717.54 558.609 717.416 558.534 717.286 558.432 717.15 558.301L710.759 551.108 696.41 556.966 696.969 566.415C696.981 566.596 696.966 566.763 696.924 566.915 696.882 567.067 696.793 567.218 696.657 567.367 696.521 567.516 696.304 567.671 696.008 567.834 695.711 567.996 695.314 568.179 694.816 568.383 694.3 568.593 693.869 568.743 693.522 568.833 693.175 568.923 692.909 568.933 692.725 568.863 692.541 568.793 692.404 568.636 692.315 568.392 692.226 568.149 692.173 567.802 692.155 567.353L690.643 530.568C690.635 530.343 690.663 530.145 690.728 529.974 690.792 529.802 690.921 529.635 691.115 529.473 691.308 529.311 691.572 529.146 691.908 528.978 692.244 528.81 692.679 528.617 693.212 528.399Z" fill-rule="evenodd"/><text fill="#000000" fill-opacity="0" font-family="Arial,Arial_MSFontService,sans-serif" font-size="41.2779" x="690.642" y="563.749">A</text><g clip-path="url(#clip28)" filter="url(#fx11)" transform="translate(714 487)"><g><path d="M8.86667 29.323 11.3085 27.5081C11.8093 27.136 12.2818 26.8565 12.7263 26.6698 13.1708 26.483 13.6083 26.3851 14.0389 26.3761 14.4695 26.3672 14.8933 26.447 15.3103 26.6157 15.7274 26.7843 16.161 27.0244 16.6112 27.3359L41.2686 42.6424 41.3842 42.5565 34.2352 14.3446C34.0637 13.7542 33.9595 13.2215 33.9225 12.7464 33.8856 12.2713 33.9169 11.8473 34.0164 11.4741 34.116 11.101 34.283 10.7615 34.5175 10.4557 34.7519 10.1498 35.0649 9.85133 35.4565 9.56026L38.0169 7.6573C38.252 7.48258 38.501 7.35136 38.7639 7.26364 39.0268 7.17593 39.287 7.14996 39.5447 7.18578 39.8024 7.22159 40.0613 7.31634 40.3214 7.47003 40.5814 7.62373 40.8317 7.86242 41.0723 8.18613L61.5225 35.7009C61.6141 35.8242 61.6626 35.9557 61.6679 36.0953 61.6732 36.235 61.6165 36.3908 61.4977 36.5628 61.379 36.7348 61.2109 36.9315 60.9935 37.1529 60.7761 37.3743 60.4689 37.6325 60.072 37.9275 59.7069 38.1989 59.3791 38.4127 59.0885 38.5688 58.7979 38.7249 58.5571 38.8321 58.3661 38.8903 58.1752 38.9485 58.0135 38.9549 57.8813 38.9096 57.7491 38.8643 57.6372 38.78 57.5456 38.6567L38.178 12.5986 38.1318 12.633 47.0418 46.6431C47.0757 46.7853 47.079 46.9265 47.0515 47.0666 47.024 47.2067 46.9494 47.3638 46.8276 47.5381 46.7059 47.7123 46.5418 47.8941 46.3355 48.0833 46.1292 48.2726 45.8719 48.4817 45.5636 48.7109 45.2399 48.9515 44.951 49.1423 44.6968 49.2833 44.4427 49.4243 44.2185 49.5251 44.0243 49.5857 43.83 49.6464 43.6619 49.6696 43.5198 49.6556 43.3777 49.6415 43.2569 49.5997 43.1573 49.5301L13.6229 30.8491 13.5998 30.8663 32.9673 56.9244C33.0589 57.0477 33.1074 57.1792 33.1127 57.3188 33.118 57.4585 33.0612 57.6143 32.9425 57.7863 32.8237 57.9583 32.6517 58.158 32.4264 58.3853 32.201 58.6126 31.8899 58.8737 31.493 59.1688 31.1119 59.452 30.7802 59.6687 30.4975 59.8189 30.2149 59.9691 29.9781 60.0734 29.7871 60.1316 29.5961 60.1898 29.4385 60.1932 29.3142 60.142 29.1899 60.0908 29.082 60.0035 28.9904 59.8802L8.54016 32.3655C8.05899 31.7181 7.88745 31.1277 8.02551 30.5943 8.16359 30.061 8.44397 29.6372 8.86667 29.323Z" fill-rule="evenodd"/></g></g><path d="M720.983 515.651 723.425 513.836C723.925 513.464 724.398 513.185 724.843 512.998 725.287 512.811 725.724 512.713 726.155 512.704 726.586 512.695 727.01 512.775 727.427 512.944 727.844 513.113 728.277 513.353 728.727 513.664L753.385 528.971 753.5 528.885 746.351 500.673C746.18 500.083 746.076 499.55 746.039 499.075 746.002 498.6 746.033 498.176 746.133 497.802 746.232 497.429 746.399 497.09 746.634 496.784 746.868 496.478 747.181 496.18 747.573 495.889L750.133 493.986C750.368 493.811 750.617 493.68 750.88 493.592 751.143 493.504 751.403 493.478 751.661 493.514 751.919 493.55 752.177 493.645 752.438 493.798 752.698 493.952 752.948 494.191 753.188 494.514L773.639 522.029C773.73 522.153 773.779 522.284 773.784 522.424 773.789 522.563 773.733 522.719 773.614 522.891 773.495 523.063 773.327 523.26 773.11 523.481 772.892 523.703 772.585 523.961 772.188 524.256 771.823 524.527 771.495 524.741 771.205 524.897 770.914 525.053 770.673 525.16 770.482 525.219 770.291 525.277 770.13 525.283 769.998 525.238 769.865 525.193 769.753 525.108 769.662 524.985L750.294 498.927 750.248 498.961 759.158 532.971C759.192 533.114 759.195 533.255 759.168 533.395 759.14 533.535 759.066 533.692 758.944 533.866 758.822 534.041 758.658 534.222 758.452 534.412 758.245 534.601 757.988 534.81 757.68 535.039 757.356 535.28 757.067 535.471 756.813 535.612 756.559 535.753 756.335 535.853 756.14 535.914 755.946 535.975 755.778 535.998 755.636 535.984 755.494 535.97 755.373 535.928 755.274 535.858L725.739 517.177 725.716 517.195 745.083 543.253C745.175 543.376 745.224 543.508 745.229 543.647 745.234 543.787 745.177 543.943 745.059 544.115 744.94 544.287 744.768 544.486 744.543 544.714 744.317 544.941 744.006 545.202 743.609 545.497 743.228 545.78 742.896 545.997 742.614 546.147 742.331 546.297 742.094 546.402 741.903 546.46 741.712 546.518 741.555 546.522 741.43 546.47 741.306 546.419 741.198 546.332 741.107 546.209L720.656 518.694C720.175 518.046 720.004 517.456 720.142 516.923 720.28 516.389 720.56 515.966 720.983 515.651Z" fill-rule="evenodd"/><text fill="#000000" fill-opacity="0" font-family="Arial,Arial_MSFontService,sans-serif" font-size="53.0078" x="720.096" y="539.88">M</text><g clip-path="url(#clip29)" filter="url(#fx12)" transform="translate(757 460)"><g><path d="M12.986 20.3759 24.8975 29.413 27.5964 25.8556C28.5019 24.6621 29.1005 23.5553 29.3923 22.5352 29.6841 21.515 29.7616 20.5312 29.6247 19.5835 29.4878 18.6359 29.1451 17.7371 28.5967 16.8871 28.0483 16.0371 27.3304 15.2754 26.4429 14.6021 25.2342 13.6851 24.0531 13.1446 22.8997 12.9808 21.7464 12.8169 20.7183 12.9168 19.8155 13.2806 18.9128 13.6444 18.1379 14.1413 17.491 14.7716 16.8441 15.4018 16.2653 16.0535 15.7545 16.7267ZM7.91605 20.2903 12.7393 13.9329C13.2268 13.2902 13.7209 12.6947 14.2213 12.1463 14.7218 11.5978 15.3647 10.9887 16.1501 10.3189 16.9355 9.64913 17.8855 9.08012 19.0001 8.61191 20.1147 8.14368 21.2445 7.88584 22.3894 7.83842 23.5344 7.79096 24.6887 7.96157 25.8524 8.3502 27.016 8.73883 28.1563 9.35685 29.2733 10.2043 30.7574 11.3303 31.9105 12.5908 32.7325 13.9859 33.5544 15.3809 34.0408 16.8529 34.1917 18.4017 34.3425 19.9506 34.1454 21.5609 33.6003 23.2326 33.0552 24.9043 32.0862 26.6583 30.6932 28.4943L28.1336 31.8681 38.8287 39.9823C38.9511 40.0752 39.0321 40.1908 39.0716 40.3293 39.1112 40.4678 39.1026 40.6301 39.0459 40.8161 38.9892 41.0021 38.8842 41.2358 38.7309 41.5173 38.5776 41.7988 38.3559 42.1307 38.0656 42.5133 37.7754 42.8958 37.5154 43.1988 37.2856 43.4222 37.0559 43.6456 36.8562 43.8135 36.6865 43.9259 36.5169 44.0383 36.3629 44.0903 36.2247 44.0818 36.0865 44.0734 35.9561 44.0227 35.8338 43.9298L8.43039 23.1395C7.81836 22.6751 7.50418 22.1836 7.48782 21.665 7.4715 21.1463 7.61423 20.6881 7.91605 20.2903Z" fill-rule="evenodd"/></g></g><path d="M768.102 479.704 780.014 488.741 782.713 485.184C783.618 483.99 784.217 482.884 784.508 481.864 784.8 480.843 784.878 479.859 784.741 478.912 784.604 477.964 784.261 477.065 783.713 476.215 783.164 475.365 782.447 474.604 781.559 473.93 780.35 473.013 779.169 472.473 778.016 472.309 776.863 472.145 775.834 472.245 774.932 472.609 774.029 472.973 773.254 473.47 772.607 474.1 771.96 474.73 771.381 475.382 770.871 476.055ZM763.032 479.619 767.855 473.261C768.343 472.619 768.837 472.023 769.337 471.475 769.838 470.926 770.481 470.317 771.266 469.647 772.052 468.977 773.002 468.408 774.116 467.94 775.231 467.472 776.361 467.214 777.506 467.167 778.651 467.119 779.805 467.29 780.969 467.679 782.132 468.067 783.272 468.685 784.389 469.533 785.874 470.659 787.027 471.919 787.849 473.314 788.671 474.709 789.157 476.181 789.308 477.73 789.459 479.279 789.262 480.889 788.716 482.561 788.171 484.233 787.202 485.987 785.809 487.823L783.25 491.196 793.945 499.311C794.067 499.404 794.148 499.519 794.188 499.658 794.227 499.796 794.219 499.958 794.162 500.144 794.105 500.33 794 500.564 793.847 500.846 793.694 501.127 793.472 501.459 793.182 501.842 792.892 502.224 792.632 502.527 792.402 502.751 792.172 502.974 791.972 503.142 791.803 503.254 791.633 503.367 791.479 503.419 791.341 503.41 791.203 503.402 791.072 503.351 790.95 503.258L763.547 482.468C762.935 482.003 762.62 481.512 762.604 480.993 762.588 480.475 762.73 480.016 763.032 479.619Z" fill-rule="evenodd"/><text fill="#000000" fill-opacity="0" font-family="Arial,Arial_MSFontService,sans-serif" font-size="36.252" x="762.603" y="498.88">P</text><g clip-path="url(#clip30)" filter="url(#fx13)" transform="translate(794 444)"><g><path d="M8.0687 17.0774 12.7115 5.9664C12.7708 5.82464 12.851 5.70727 12.9523 5.6143 13.0536 5.52132 13.1962 5.46645 13.3802 5.44963 13.5641 5.43284 13.7805 5.45042 14.0294 5.50239 14.2783 5.55434 14.5711 5.65067 14.9078 5.79136 15.5989 6.08015 16.044 6.35983 16.2432 6.63037 16.4424 6.90096 16.479 7.18684 16.3531 7.4881L11.7103 18.5991C11.577 18.9181 11.3397 19.0999 10.9984 19.1446 10.6571 19.1893 10.1497 19.071 9.47632 18.7896 8.80292 18.5082 8.36664 18.2322 8.16748 17.9617 7.96832 17.6911 7.93539 17.3963 8.0687 17.0774Z" fill-rule="evenodd"/></g></g><path d="M800.185 460.406 804.828 449.295C804.887 449.153 804.967 449.036 805.068 448.943 805.17 448.85 805.312 448.795 805.496 448.778 805.68 448.761 805.897 448.779 806.146 448.831 806.394 448.883 806.687 448.979 807.024 449.12 807.715 449.408 808.16 449.688 808.359 449.959 808.559 450.229 808.595 450.515 808.469 450.816L803.826 461.927C803.693 462.246 803.456 462.428 803.115 462.473 802.773 462.518 802.266 462.399 801.592 462.118 800.919 461.837 800.483 461.561 800.284 461.29 800.084 461.019 800.052 460.725 800.185 460.406Z" fill-rule="evenodd"/><text fill="#000000" fill-opacity="0" font-family="Arial,Arial_MSFontService,sans-serif" font-size="13.7103" x="800.105" y="460.768">-</text></g></svg>